<svg width="20" height="21" viewBox="0 0 20 21" fill="none" xmlns="http://www.w3.org/2000/svg">
<g clip-path="url(#clip0_2826_541640)">
<path d="M3.98771 4.2373C4.14007 4.08498 4.3467 3.99942 4.56214 3.99942C4.77759 3.99942 4.98421 4.08498 5.13658 4.2373L10.2496 9.35037L15.3627 4.2373C15.4377 4.1597 15.5273 4.0978 15.6264 4.05522C15.7256 4.01264 15.8322 3.99023 15.9401 3.98929C16.048 3.98835 16.1549 4.00891 16.2548 4.04976C16.3546 4.09062 16.4454 4.15095 16.5217 4.22723C16.5979 4.30352 16.6583 4.39424 16.6991 4.49409C16.74 4.59395 16.7605 4.70093 16.7596 4.80882C16.7587 4.9167 16.7362 5.02332 16.6937 5.12245C16.6511 5.22157 16.5892 5.31123 16.5116 5.38618L11.3985 10.4992L16.5116 15.6123C16.6596 15.7655 16.7415 15.9708 16.7396 16.1838C16.7378 16.3969 16.6523 16.6006 16.5017 16.7513C16.351 16.9019 16.1473 16.9874 15.9342 16.9892C15.7212 16.9911 15.5159 16.9092 15.3627 16.7612L10.2496 11.6481L5.13658 16.7612C4.98334 16.9092 4.7781 16.9911 4.56507 16.9892C4.35203 16.9874 4.14825 16.9019 3.9976 16.7513C3.84696 16.6006 3.76151 16.3969 3.75966 16.1838C3.75781 15.9708 3.8397 15.7655 3.98771 15.6123L9.10077 10.4992L3.98771 5.38618C3.83539 5.23381 3.74982 5.02719 3.74982 4.81174C3.74982 4.5963 3.83539 4.38967 3.98771 4.2373Z" fill="white"/>
</g>
<defs>
<clipPath id="clip0_2826_541640">
<rect width="12.5" height="12.5" fill="white" transform="translate(3.75 4)"/>
</clipPath>
</defs>
</svg>
