<svg xmlns="http://www.w3.org/2000/svg" width="14.229" height="15.62" viewBox="0 0 14.229 15.62">
  <g id="edit" transform="translate(-1 -0.38)">
    <path id="Path_1" data-name="Path 1" d="M11.436,1A1.75,1.75,0,0,1,13.9.79l.7.589a1.75,1.75,0,0,1,.216,2.465l-5.7,6.8a4.75,4.75,0,0,1-1.5,1.187l-2.572,1.3a.75.75,0,0,1-1.056-.886l.833-2.759A4.75,4.75,0,0,1,5.732,7.8l5.7-6.8Zm1.5.934a.25.25,0,0,0-.353.03l-.53.633,1.082.914.534-.636a.25.25,0,0,0-.031-.352l-.7-.59Zm-.765,2.726-1.082-.914L6.881,8.767a3.25,3.25,0,0,0-.621,1.15L5.933,11l1.01-.51a3.249,3.249,0,0,0,1.024-.812l4.206-5.013Z" fill="#fff" fill-rule="evenodd"/>
    <path id="Path_2" data-name="Path 2" d="M3.25,3.5a.75.75,0,0,0-.75.75v9.5a.75.75,0,0,0,.75.75h9.5a.75.75,0,0,0,.75-.75V9A.75.75,0,0,1,15,9v4.75A2.25,2.25,0,0,1,12.75,16H3.25A2.25,2.25,0,0,1,1,13.75V4.25A2.25,2.25,0,0,1,3.25,2H6A.75.75,0,0,1,6,3.5Z" fill="#fff"/>
  </g>
</svg>
