<svg width="459" height="546" viewBox="0 0 459 546" fill="none" xmlns="http://www.w3.org/2000/svg">
<g clip-path="url(#clip0_2011_537987)">
<path d="M242.198 340.854V544.47" stroke="#FFB000" stroke-width="6" stroke-miterlimit="10"/>
<path d="M332.314 340.854V544.47" stroke="#FFB000" stroke-width="6" stroke-miterlimit="10"/>
<path d="M241.326 511.736H331.211" stroke="#FFB000" stroke-width="6" stroke-miterlimit="10"/>
<path d="M346.633 313.565H227.008C222.99 313.565 219.732 316.816 219.732 320.828V333.591C219.732 337.602 222.99 340.854 227.008 340.854H346.633C350.651 340.854 353.908 337.602 353.908 333.591V320.828C353.908 316.816 350.651 313.565 346.633 313.565Z" fill="#F8F9FA" stroke="#6610F2" stroke-width="3" stroke-miterlimit="10"/>
<path d="M330.115 116.976C337.531 114.899 347.785 91.9122 336.55 79.4634C325.315 67.0146 301.509 66.6385 281.299 69.66C262.618 72.4541 238.08 83.272 247.432 106.604C260.73 139.779 330.115 116.976 330.115 116.976Z" fill="#FFB819"/>
<path d="M318.937 101.322C325.945 99.8442 337.986 88.2043 327.404 79.3454C316.822 70.4865 300.523 69.6251 283.165 72.5853C265.806 75.5456 247.817 81.6716 256.074 98.4668C264.33 115.262 318.937 101.322 318.937 101.322Z" fill="#F49C00"/>
<path d="M360.299 542.445C355.765 545.23 328.039 545.069 322.805 542.445C317.571 539.821 318.797 530.954 317.926 525.033C317.054 519.113 304.671 507.98 303.975 504.145C303.278 500.31 316.703 491.959 319.034 488.557C317.115 494.206 336.322 495.444 337.868 491.784C337.115 505.19 346.983 526.502 355.078 528.426C360.172 529.642 364.832 539.66 360.299 542.445Z" fill="#DBDAFF"/>
<path d="M342.003 477.122L337.859 491.784C336.322 495.444 317.115 494.206 319.025 488.557C320.935 482.907 320.212 473.091 320.212 473.091L342.003 477.122Z" fill="#C36F0B"/>
<path d="M303.979 504.163C304.68 507.993 317.058 519.134 317.934 525.055C318.81 530.975 317.584 539.852 322.814 542.462C328.044 545.073 355.774 545.248 360.307 542.462" stroke="#6610F2" stroke-width="3" stroke-miterlimit="10" stroke-linecap="round"/>
<path d="M338.937 528.409C338.937 528.409 348.135 524.307 357.289 527.534" stroke="#F8F9FA" stroke-width="6" stroke-miterlimit="10" stroke-linecap="round"/>
<path d="M233.955 542.445C238.488 545.23 263.148 545.069 268.382 542.445C273.616 539.821 276.77 530.954 277.642 525.033C278.513 519.113 286.954 505.794 287.65 501.959C288.347 498.124 274.922 489.773 272.591 486.371C274.51 492.02 255.741 495.444 254.195 491.784C254.948 505.19 247.266 526.502 239.176 528.426C234.077 529.642 229.421 539.66 233.955 542.445Z" fill="#DBDAFF"/>
<path d="M244.804 476.248L254.204 491.784C255.741 495.444 274.51 492.02 272.6 486.371C270.69 480.721 270.099 471.779 270.099 471.779L244.804 476.248Z" fill="#C36F0B"/>
<path d="M287.65 501.976C286.954 505.807 278.513 519.134 277.642 525.055C276.77 530.976 273.612 539.852 268.378 542.462C263.144 545.073 238.488 545.248 233.95 542.462" stroke="#6610F2" stroke-width="3" stroke-miterlimit="10" stroke-linecap="round"/>
<path d="M255.316 528.409C255.316 528.409 246.14 524.307 236.964 527.534" stroke="#F8F9FA" stroke-width="6" stroke-miterlimit="10" stroke-linecap="round"/>
<path d="M242.286 254.626C242.286 254.626 151.065 299.227 151.065 326.661C151.065 375.599 232.654 478.828 246.666 477.472C260.678 476.117 274.479 473.157 273.941 467.236C273.402 461.315 244.059 368.485 221.257 341.003C221.257 341.003 229.579 327.924 281.584 328.497C306.647 328.773 328.499 330.474 329.038 331.283C329.577 332.091 301.789 386.229 315.968 469.938C317.207 477.232 347.763 480.293 350.724 476.257C353.685 472.221 401.112 330.076 396.535 318.764C391.958 307.452 344.412 266.939 321.224 254.613C304.522 245.741 242.286 254.626 242.286 254.626Z" fill="#3F4D79"/>
<path d="M216.237 113.194C204.669 119.534 187.381 176.391 187.381 176.391C187.381 176.391 145.726 125.35 143.799 124.869C141.872 124.388 130.68 139.298 130.68 139.298C130.68 139.298 152.428 236.231 186.352 238.386C200.591 239.291 212.632 231.045 222.518 218.994C226.898 233.576 230.989 245.601 230.989 245.601C232.741 251.723 200.048 268.579 207.507 273.21C207.507 273.21 232.96 264.946 277.874 276.507C331.574 290.342 357.535 279.847 352.458 275.825C347.382 271.802 339.41 258.723 336.655 249.974L341.609 202.889C341.609 202.889 358.945 246.817 385.151 246.817C416.412 246.817 444.984 151.411 444.984 151.411C433.871 151.096 424.664 143.172 424.664 143.172C412.917 151.411 388.467 180.27 388.467 180.27C388.467 180.27 373.229 134.283 365.927 123.824C358.625 113.364 334.828 105.122 318.937 101.322L256.074 98.4669C251.856 97.6623 226.079 106.482 216.237 113.194Z" fill="#FFB000"/>
<path d="M388.467 178.346C380.517 187.471 373.334 203.707 373.334 203.707" stroke="#F49C00" stroke-width="6" stroke-miterlimit="10"/>
<path d="M338.529 108.253C308.009 105.677 277.366 124.842 277.366 124.842C277.366 124.842 250.428 118.817 245.041 100.916" stroke="#F49C00" stroke-width="6" stroke-miterlimit="10"/>
<path d="M231.865 245.601C231.865 245.601 215.019 197.292 212.667 176.92" stroke="#F49C00" stroke-width="6" stroke-miterlimit="10" stroke-linecap="round"/>
<path d="M444.103 116.605C443.696 119.206 440.862 123.242 443.665 123.212C445.11 123.212 455.561 121.511 456.84 125.35C457.381 127.174 457.284 129.128 456.564 130.89C458.855 134.305 457.103 137.095 457.103 137.095C458.487 139.22 458.855 141.97 457.892 143.181C457.892 143.181 460.314 148.756 458.001 150.051C450.835 154.074 439.408 154.909 433.871 153.479C429.986 152.478 425.326 150.081 424.134 141.826C423.644 138.446 427.016 129.582 429.592 125.927C430.643 124.423 434.493 118.424 435.794 116.779C437.649 114.372 438.912 111.564 439.482 108.581C439.482 108.581 445.242 109.337 444.103 116.605Z" fill="#C36F0B"/>
<path d="M453.472 124.838C453.726 126.587 443.052 126.954 441.208 127.357C438.58 127.925 438.921 133.527 442.329 132.98C446.966 132.769 451.571 132.105 456.078 130.999" stroke="#B65A18" stroke-width="4" stroke-miterlimit="10" stroke-linecap="round"/>
<path d="M456.407 137.151C445.115 139.425 442.101 139.215 442.101 139.215C440.454 139.539 438.334 133.728 442.329 132.98" stroke="#B65A18" stroke-width="4" stroke-miterlimit="10" stroke-linecap="round"/>
<path d="M456.687 142.985C446.061 145.315 442.382 145.048 442.382 145.048C440.809 145.237 438.843 139.71 442.053 139.329" stroke="#B65A18" stroke-width="4" stroke-miterlimit="10" stroke-linecap="round"/>
<path d="M445.356 144.957C445.356 144.957 441.558 144.602 441.615 146.964C441.72 151.161 443.757 151.612 453.371 149.85" stroke="#B65A18" stroke-width="4" stroke-miterlimit="10" stroke-linecap="round"/>
<path d="M128.595 103.701C128.683 106.325 130.983 110.636 128.228 110.26C126.8 110.067 116.703 107.142 114.978 110.767C114.221 112.5 114.079 114.439 114.575 116.263C111.903 119.351 113.287 122.315 113.287 122.315C111.666 124.243 110.97 126.911 111.771 128.223C111.771 128.223 108.705 133.422 110.825 134.978C117.396 139.814 128.565 142.023 134.198 141.284C138.14 140.768 143.032 138.97 145.214 130.977C146.09 127.707 143.86 118.581 141.771 114.646C140.917 113.032 137.851 106.652 136.764 104.873C135.236 102.273 134.336 99.3537 134.136 96.3462C134.136 96.3462 128.359 96.3987 128.595 103.701Z" fill="#C36F0B"/>
<path d="M115.411 135.354C124.675 138.258 126.738 138.057 127.356 133.933C127.549 132.622 126.432 132.022 125.42 131.747C125.888 131.838 126.36 131.904 126.835 131.944C128.245 132.289 130.632 127.492 128.517 126.168C129.393 125.73 130.321 122.595 130.317 119.81C131.951 118.682 132.069 115.337 130.168 114.668C128.376 114.042 117.904 112.376 118.342 110.688L115.411 135.354Z" fill="#C36F0B"/>
<path d="M115.578 116.443C119.723 118.04 124.008 119.252 128.376 120.063C131.666 121.012 132.686 115.533 130.168 114.654C128.376 114.029 119.997 111.305 118.341 110.68" stroke="#B65A18" stroke-width="3" stroke-miterlimit="10" stroke-linecap="round"/>
<path d="M114.509 122.468C125.363 126.076 127.842 126.237 127.842 126.237C129.423 126.753 132.222 121.288 128.376 120.063" stroke="#B65A18" stroke-width="3" stroke-miterlimit="10" stroke-linecap="round"/>
<path d="M113.007 128.161C123.195 131.751 126.856 131.931 126.856 131.931C128.385 132.311 130.518 126.579 126.769 126.084" stroke="#B65A18" stroke-width="3" stroke-miterlimit="10" stroke-linecap="round"/>
<path d="M123.909 131.498C123.909 131.498 127.697 131.611 127.356 133.933C126.738 138.057 124.679 138.253 115.416 135.354" stroke="#B65A18" stroke-width="3" stroke-miterlimit="10" stroke-linecap="round"/>
<path d="M305.604 60.4338C305.604 60.4338 298.933 90.2288 318.937 101.322C318.937 101.322 300.541 104.492 277.028 123.824C277.028 123.824 258.93 108.611 256.074 98.4624C256.074 98.4624 274.47 92.1265 272.583 60.4207L305.604 60.4338Z" fill="#C36F0B"/>
<path d="M305.604 60.4338H272.583C274.488 92.1309 256.074 98.4756 256.074 98.4756C256.074 98.4756 292.792 98.4756 303.178 65.7947L305.604 60.4338Z" fill="#B65A18"/>
<path d="M306.866 60.1409C306.866 60.1409 297.059 79.2274 273.625 79.2362C252.723 79.2362 249.535 17.9889 280.664 17.145C310.326 16.3404 306.507 51.3782 306.507 51.3782C306.507 51.3782 311.846 48.278 313.786 51.505C315.727 54.732 306.866 60.1409 306.866 60.1409Z" fill="#C36F0B"/>
<path d="M293.134 19.4319C293.134 19.4319 292.797 30.0355 278.093 29.8737C265.325 29.7338 258.325 36.9486 257.642 42.1433" stroke="#3F4D79" stroke-width="3" stroke-miterlimit="10" stroke-linecap="round"/>
<path d="M333.453 40.3723C333.453 51.9248 319.485 61.9118 304.019 68.6894C303.103 69.0917 301.623 69.1835 299.748 69.0348C302.574 66.4616 304.976 63.4602 306.866 60.1409C306.866 60.1409 315.674 54.6576 313.769 51.505C311.863 48.3523 306.489 51.3738 306.489 51.3738C306.489 51.3738 309.165 26.9527 292.788 19.3662C292.661 19.6024 288.408 27.0883 275.837 27.4862C263.879 27.8579 260.616 32.4098 259.25 37.1672C259.206 37.3333 259.162 37.4951 259.123 37.6613C257.582 43.9893 257.213 50.5454 258.036 57.0057L257.966 56.9795C256.805 55.5715 240.945 35.5056 245.084 24.7446C249.583 13.0478 278.334 -3.45007 301.351 0.633957C314.207 2.92084 333.449 34.2987 333.453 40.3723Z" fill="#3F4D79"/>
<path d="M229.202 205.95H52.7935C50.3728 205.947 48.0142 205.186 46.0498 203.774C44.0853 202.362 42.6141 200.37 41.8432 198.08L4.45466 86.9407C4.04395 85.7194 3.93023 84.4181 4.1229 83.1442C4.31557 81.8704 4.80909 80.6606 5.5627 79.6148C6.3163 78.569 7.30836 77.7172 8.45691 77.1298C9.60545 76.5423 10.8775 76.2362 12.168 76.2366H188.577C190.997 76.2404 193.356 77.0019 195.32 78.4138C197.284 79.8257 198.756 81.8169 199.527 84.1073L236.894 195.22C237.309 196.441 237.427 197.743 237.238 199.019C237.049 200.295 236.558 201.507 235.806 202.556C235.055 203.604 234.064 204.459 232.915 205.049C231.767 205.64 230.494 205.949 229.202 205.95Z" fill="#C7BFFF"/>
<path d="M225.177 210.284H48.7638C46.3431 210.28 43.9845 209.519 42.02 208.107C40.0556 206.695 38.5843 204.704 37.8135 202.413L0.438057 91.296C0.0274667 90.075 -0.0863053 88.7741 0.106136 87.5005C0.298576 86.227 0.79171 85.0175 1.54482 83.9718C2.29792 82.926 3.2894 82.0742 4.43738 81.4865C5.58536 80.8988 6.85691 80.5921 8.14704 80.5918H184.551C186.972 80.595 189.331 81.3562 191.295 82.7682C193.26 84.1802 194.731 86.1718 195.502 88.4625L232.873 199.579C233.283 200.799 233.397 202.099 233.205 203.372C233.013 204.644 232.521 205.853 231.77 206.898C231.018 207.944 230.028 208.796 228.882 209.384C227.736 209.973 226.466 210.281 225.177 210.284Z" fill="#F8F9FA"/>
<path d="M229.202 205.592H52.7935C50.3727 205.589 48.0137 204.828 46.0492 203.416C44.0846 202.004 42.6135 200.012 41.8432 197.721L4.45466 86.6041C4.04395 85.3828 3.93023 84.0814 4.1229 82.8076C4.31557 81.5337 4.80909 80.3239 5.5627 79.2781C6.3163 78.2323 7.30836 77.3805 8.45691 76.7931C9.60545 76.2057 10.8775 75.8995 12.168 75.8999H188.577C190.997 75.9038 193.356 76.6652 195.32 78.0771C197.284 79.489 198.756 81.4803 199.527 83.7706L236.911 194.888C237.322 196.109 237.436 197.409 237.243 198.683C237.051 199.957 236.558 201.166 235.804 202.212C235.051 203.257 234.06 204.109 232.912 204.697C231.764 205.285 230.492 205.591 229.202 205.592V205.592Z" stroke="#6610F2" stroke-width="3" stroke-miterlimit="10"/>
<path d="M152.901 170.764L166.321 204.105H137.316C137.316 204.105 142.954 178.022 152.901 170.764Z" fill="#E2E2FF"/>
<path d="M172.191 245.92C115.079 245.92 139.095 184.909 150.452 172.237H106.498C95.1447 184.918 64.4183 249.27 121.526 249.27H172.191V245.92Z" fill="#F8F9FA" stroke="#6610F2" stroke-width="3" stroke-miterlimit="10"/>
<path d="M123.709 143.158C126.17 139.266 124.184 133.601 119.272 130.506C114.36 127.412 108.384 128.058 105.923 131.95C103.462 135.843 105.448 141.507 110.36 144.602C115.271 147.697 121.248 147.05 123.709 143.158Z" fill="#E2E2FF"/>
<path d="M126.515 140.795C128.976 136.903 126.989 131.239 122.077 128.144C117.166 125.049 111.189 125.695 108.728 129.588C106.267 133.48 108.254 139.144 113.165 142.239C118.077 145.334 124.053 144.688 126.515 140.795Z" stroke="#6610F2" stroke-width="3" stroke-miterlimit="10"/>
<path d="M41.0635 249.27H302.63C306.476 249.27 309.595 252.173 309.595 255.759C309.595 259.34 306.476 262.243 302.63 262.243H41.0635V249.27Z" fill="#F8F9FA"/>
<path d="M41.0635 249.27H302.63C306.476 249.27 309.595 252.173 309.595 255.759C309.595 259.34 306.476 262.243 302.63 262.243H41.0635" stroke="#6610F2" stroke-width="3" stroke-miterlimit="10"/>
</g>
<defs>
<clipPath id="clip0_2011_537987">
<rect width="459" height="546" fill="white"/>
</clipPath>
</defs>
</svg>
