<svg width="128" height="108" viewBox="0 0 128 108" fill="none" xmlns="http://www.w3.org/2000/svg">
<path d="M122.837 55.5969C122.837 69.7969 117.038 82.5969 107.738 91.7969C98.6375 100.897 86.0375 106.397 72.1375 106.397C58.3375 106.397 45.7375 100.797 36.5375 91.7969C27.2375 82.5969 21.4375 69.7969 21.4375 55.5969C21.4375 27.4969 44.1375 4.79688 72.1375 4.79688C100.137 4.79688 122.837 27.5969 122.837 55.5969Z" fill="#F1F3F9" stroke="#D6DCE8" stroke-width="2" stroke-miterlimit="10"/>
<path d="M118.437 22.2967C120.701 22.2967 122.537 20.461 122.537 18.1967C122.537 15.9323 120.701 14.0967 118.437 14.0967C116.173 14.0967 114.337 15.9323 114.337 18.1967C114.337 20.461 116.173 22.2967 118.437 22.2967Z" fill="#F1F3F9"/>
<path d="M124.438 6.29678C125.984 6.29678 127.238 5.04317 127.238 3.49678C127.238 1.95038 125.984 0.696777 124.438 0.696777C122.891 0.696777 121.638 1.95038 121.638 3.49678C121.638 5.04317 122.891 6.29678 124.438 6.29678Z" fill="#F1F3F9"/>
<path d="M23.0373 22.1967C24.5837 22.1967 25.8373 20.9431 25.8373 19.3967C25.8373 17.8503 24.5837 16.5967 23.0373 16.5967C21.4909 16.5967 20.2373 17.8503 20.2373 19.3967C20.2373 20.9431 21.4909 22.1967 23.0373 22.1967Z" fill="#F1F3F9"/>
<path d="M5.9373 76.1969C8.80919 76.1969 11.1373 73.8688 11.1373 70.9969C11.1373 68.125 8.80919 65.7969 5.9373 65.7969C3.06542 65.7969 0.737305 68.125 0.737305 70.9969C0.737305 73.8688 3.06542 76.1969 5.9373 76.1969Z" fill="#F1F3F9"/>
<path d="M117.456 26.4796V81.8843C117.456 84.1904 115.61 86.0173 113.347 86.0173H29.8924C27.6296 86.0173 25.7539 84.1604 25.7539 81.8843V26.4796C25.7539 24.2035 27.5999 22.3467 29.8924 22.3467H113.347C115.61 22.3467 117.456 24.2035 117.456 26.4796Z" fill="white" stroke="#D6DCE8" stroke-width="2" stroke-miterlimit="10" stroke-linejoin="round"/>
<path d="M117.456 26.4796V32.6789H25.7539V26.4796C25.7539 24.2035 27.5999 22.3467 29.8924 22.3467H113.347C115.61 22.3467 117.456 24.2035 117.456 26.4796Z" fill="#D6DCE8"/>
<path d="M31.5297 29.0551C32.3847 29.0551 33.0779 28.3578 33.0779 27.4978C33.0779 26.6377 32.3847 25.9404 31.5297 25.9404C30.6746 25.9404 29.9814 26.6377 29.9814 27.4978C29.9814 28.3578 30.6746 29.0551 31.5297 29.0551Z" fill="#AAB2C5"/>
<path d="M36.5912 29.0551C37.4462 29.0551 38.1394 28.3578 38.1394 27.4978C38.1394 26.6377 37.4462 25.9404 36.5912 25.9404C35.7361 25.9404 35.043 26.6377 35.043 27.4978C35.043 28.3578 35.7361 29.0551 36.5912 29.0551Z" fill="#AAB2C5"/>
<path d="M41.6224 29.0551C42.4775 29.0551 43.1707 28.3578 43.1707 27.4978C43.1707 26.6377 42.4775 25.9404 41.6224 25.9404C40.7674 25.9404 40.0742 26.6377 40.0742 27.4978C40.0742 28.3578 40.7674 29.0551 41.6224 29.0551Z" fill="#AAB2C5"/>
<path d="M44.8984 70.4141H98.312" stroke="#D5DDEA" stroke-width="2" stroke-miterlimit="10" stroke-linecap="round" stroke-linejoin="round"/>
<path d="M53.3242 76.1343H89.886" stroke="#D5DDEA" stroke-width="2" stroke-miterlimit="10" stroke-linecap="round" stroke-linejoin="round"/>
<path d="M62.6731 54.3015V57.3862H60.7973V60.3511H57.2841V57.3862H49.543V53.8523L56.7184 43.8195H60.8271V54.3314H62.6731V54.3015ZM57.2841 47.9225L52.818 54.3015H57.2841V47.9225Z" fill="#AAB2C5"/>
<path d="M71.486 60.6805C67.7345 60.6805 64.4297 57.3862 64.4297 52.0553C64.4297 46.7245 67.7048 43.4302 71.486 43.4302C75.2672 43.4302 78.5423 46.7245 78.5423 52.0553C78.5423 57.3862 75.2672 60.6805 71.486 60.6805ZM71.486 57.506C73.2426 57.506 74.9993 55.739 74.9993 52.0853C74.9993 48.4316 73.2426 46.6646 71.486 46.6646C69.7294 46.6646 67.9727 48.4316 67.9727 52.0853C67.9727 55.739 69.7294 57.506 71.486 57.506Z" fill="#AAB2C5"/>
<path d="M93.697 54.3015V57.3862H91.8213V60.3511H88.308V57.3862H80.5669V53.8523L87.7423 43.8195H91.8511V54.3314H93.697V54.3015ZM88.2782 47.9225L83.8122 54.3015H88.2782V47.9225Z" fill="#AAB2C5"/>
<path d="M113.401 98.2513L93.4541 78.3203L98.0269 73.7476L117.958 93.6943L113.401 98.2513Z" fill="#D6DCE8" stroke="#AAB2C5" stroke-width="2" stroke-miterlimit="10"/>
<path d="M120.335 105.264L105.04 89.9693C103.763 88.692 103.763 86.6106 105.04 85.3334C106.317 84.0562 108.399 84.0562 109.676 85.3334L124.971 100.629C126.248 101.906 126.248 103.987 124.971 105.264C123.694 106.542 121.612 106.542 120.335 105.264Z" fill="#D6DCE8" stroke="#AAB2C5" stroke-width="2" stroke-miterlimit="10"/>
<path d="M119.247 106.242L99.5685 86.563C99.1113 86.1057 99.1113 85.3646 99.5685 84.8916L104.599 79.8615C105.056 79.4042 105.797 79.4042 106.27 79.8615L125.949 99.5402C126.406 99.9975 126.406 100.739 125.949 101.212L120.919 106.242C120.446 106.699 119.705 106.699 119.247 106.242Z" fill="#D6DCE8" stroke="#AAB2C5" stroke-width="2" stroke-miterlimit="10"/>
<path d="M70.8745 14.0967C49.9974 14.0967 33.0781 31.016 33.0781 51.8931C33.0781 72.7544 49.9974 89.6894 70.8587 89.6894C91.7358 89.6894 108.655 72.7701 108.655 51.8931C108.655 31.016 91.7358 14.0967 70.8745 14.0967ZM70.8745 82.6883C54.1129 82.6883 40.5365 68.8912 40.5365 51.8773C40.5365 34.8634 54.1129 21.082 70.8745 21.082C87.6361 21.082 101.213 34.8792 101.213 51.8931C101.213 68.9069 87.6203 82.6883 70.8745 82.6883Z" fill="#D6DCE8" stroke="#AAB2C5" stroke-width="2" stroke-miterlimit="10"/>
</svg>
