<svg width="31" height="31" viewBox="0 0 31 31" fill="none" xmlns="http://www.w3.org/2000/svg">
<rect x="0.5" y="0.5" width="30" height="30" rx="2.7" fill="white" fill-opacity="0.01"/>
<path d="M13.5 18C13.5 17.8674 13.5527 17.7402 13.6464 17.6464C13.7402 17.5527 13.8674 17.5 14 17.5H17C17.1326 17.5 17.2598 17.5527 17.3536 17.6464C17.4473 17.7402 17.5 17.8674 17.5 18C17.5 18.1326 17.4473 18.2598 17.3536 18.3536C17.2598 18.4473 17.1326 18.5 17 18.5H14C13.8674 18.5 13.7402 18.4473 13.6464 18.3536C13.5527 18.2598 13.5 18.1326 13.5 18ZM11.5 15C11.5 14.8674 11.5527 14.7402 11.6464 14.6464C11.7402 14.5527 11.8674 14.5 12 14.5H19C19.1326 14.5 19.2598 14.5527 19.3536 14.6464C19.4473 14.7402 19.5 14.8674 19.5 15C19.5 15.1326 19.4473 15.2598 19.3536 15.3536C19.2598 15.4473 19.1326 15.5 19 15.5H12C11.8674 15.5 11.7402 15.4473 11.6464 15.3536C11.5527 15.2598 11.5 15.1326 11.5 15ZM9.5 12C9.5 11.8674 9.55268 11.7402 9.64645 11.6464C9.74021 11.5527 9.86739 11.5 10 11.5H21C21.1326 11.5 21.2598 11.5527 21.3536 11.6464C21.4473 11.7402 21.5 11.8674 21.5 12C21.5 12.1326 21.4473 12.2598 21.3536 12.3536C21.2598 12.4473 21.1326 12.5 21 12.5H10C9.86739 12.5 9.74021 12.4473 9.64645 12.3536C9.55268 12.2598 9.5 12.1326 9.5 12Z" fill="#6C757D"/>
<rect x="0.5" y="0.5" width="30" height="30" rx="2.7" stroke="#6C757D"/>
</svg>
