<svg width="16" height="16" viewBox="0 0 16 16" fill="none" xmlns="http://www.w3.org/2000/svg">
<g clip-path="url(#clip0_2114_204264)">
<path d="M7.99966 -0.000823975C3.57966 -0.000823975 -0.000335693 3.57918 -0.000335693 7.99918C-0.000335693 11.5392 2.28966 14.5292 5.46966 15.5892C5.86966 15.6592 6.01966 15.4192 6.01966 15.2092C6.01966 15.0192 6.00966 14.3892 6.00966 13.7192C3.99966 14.0892 3.47966 13.2292 3.31966 12.7792C3.22966 12.5492 2.83966 11.8392 2.49966 11.6492C2.21966 11.4992 1.81966 11.1292 2.48966 11.1192C3.11966 11.1092 3.56966 11.6992 3.71966 11.9392C4.43966 13.1492 5.58966 12.8092 6.04966 12.5992C6.11966 12.0792 6.32966 11.7292 6.55966 11.5292C4.77966 11.3292 2.91966 10.6392 2.91966 7.57918C2.91966 6.70918 3.22966 5.98918 3.73966 5.42918C3.65966 5.22918 3.37966 4.40918 3.81966 3.30918C3.81966 3.30918 4.48966 3.09918 6.01966 4.12918C6.65966 3.94918 7.33966 3.85918 8.01966 3.85918C8.69967 3.85918 9.37966 3.94918 10.0197 4.12918C11.5497 3.08918 12.2197 3.30918 12.2197 3.30918C12.6597 4.40918 12.3797 5.22918 12.2997 5.42918C12.8097 5.98918 13.1197 6.69918 13.1197 7.57918C13.1197 10.6492 11.2497 11.3292 9.46966 11.5292C9.75966 11.7792 10.0097 12.2592 10.0097 13.0092C10.0097 14.0792 9.99966 14.9392 9.99966 15.2092C9.99966 15.4192 10.1497 15.6692 10.5497 15.5892C12.1379 15.0532 13.518 14.0325 14.4957 12.6709C15.4734 11.3094 15.9994 9.67542 15.9997 7.99918C15.9997 3.57918 12.4197 -0.000823975 7.99966 -0.000823975Z" fill="white"/>
</g>
<defs>
<clipPath id="clip0_2114_204264">
<rect width="16" height="16" fill="white"/>
</clipPath>
</defs>
</svg>
