<svg width="636" height="455" viewBox="0 0 636 455" fill="none" xmlns="http://www.w3.org/2000/svg">
<g clip-path="url(#clip0_2012_539625)">
<path d="M454.321 319.027H363.247C354.707 319.027 346.517 315.633 340.478 309.593C334.439 303.553 331.047 295.361 331.047 286.819V233.198C331.047 229.627 332.465 226.203 334.989 223.679C337.513 221.154 340.936 219.736 344.506 219.736H413.247C414.413 219.734 415.567 219.962 416.645 220.408C417.722 220.853 418.701 221.507 419.525 222.331C420.35 223.156 421.003 224.135 421.449 225.213C421.894 226.29 422.122 227.445 422.12 228.612V286.819C422.12 295.361 425.513 303.553 431.552 309.593C437.59 315.633 445.781 319.027 454.321 319.027V319.027Z" fill="white" stroke="#D8BAA3" stroke-width="3" stroke-miterlimit="10"/>
<path d="M468.135 312.186C468.135 313.999 467.415 315.739 466.133 317.022C464.851 318.305 463.113 319.026 461.299 319.027H363.247C359.019 319.027 354.831 318.193 350.925 316.575C347.018 314.956 343.468 312.584 340.478 309.593C337.488 306.602 335.116 303.052 333.498 299.144C331.88 295.236 331.047 291.048 331.047 286.819V233.198C331.047 229.627 332.465 226.203 334.989 223.679C337.513 221.154 340.936 219.736 344.506 219.736H345.552C344.271 220.989 343.253 222.486 342.56 224.138C341.867 225.791 341.511 227.566 341.515 229.358V282.979C341.511 286.436 342.065 289.87 343.155 293.15C344.337 296.707 346.61 299.801 349.649 301.994C352.689 304.187 356.342 305.367 360.089 305.366H461.282C462.18 305.363 463.069 305.538 463.899 305.88C464.729 306.221 465.484 306.723 466.121 307.356C466.757 307.989 467.263 308.742 467.608 309.57C467.954 310.399 468.133 311.288 468.135 312.186V312.186Z" fill="#F0E1D4" stroke="#D8BAA3" stroke-width="3" stroke-miterlimit="10"/>
<path d="M381.329 319.009H431.039V325.093C431.039 326.403 430.519 327.66 429.592 328.587C428.665 329.514 427.409 330.035 426.098 330.035H386.267C384.956 330.035 383.699 329.514 382.773 328.587C381.846 327.66 381.326 326.403 381.326 325.093V319.009H381.329Z" fill="white" stroke="#D8BAA3" stroke-width="3" stroke-miterlimit="10"/>
<path d="M411.418 330.049H400.95V413.892H411.418V330.049Z" fill="#F0E1D4" stroke="#D8BAA3" stroke-width="3" stroke-miterlimit="10"/>
<path d="M412.032 413.892H400.336C397.977 413.892 396.065 415.804 396.065 418.164V431.249C396.065 433.608 397.977 435.521 400.336 435.521H412.032C414.391 435.521 416.303 433.608 416.303 431.249V418.164C416.303 415.804 414.391 413.892 412.032 413.892Z" fill="white" stroke="#D8BAA3" stroke-width="3" stroke-miterlimit="10"/>
<path d="M359.852 455C359.852 449.834 361.904 444.879 365.556 441.226C369.208 437.573 374.161 435.521 379.326 435.521H433.042C438.207 435.521 443.16 437.573 446.813 441.226C450.465 444.879 452.516 449.834 452.516 455" stroke="#D8BAA3" stroke-width="3" stroke-miterlimit="10"/>
<path d="M388.161 455V446.355C388.161 443.485 389.301 440.733 391.33 438.704C393.358 436.675 396.11 435.535 398.979 435.535H413.397C416.266 435.535 419.017 436.675 421.046 438.704C423.074 440.733 424.214 443.485 424.214 446.355V455" stroke="#D8BAA3" stroke-width="3" stroke-miterlimit="10"/>
<path d="M375.952 219.82C375.952 219.82 331.326 283.779 377.456 300.267C403.909 309.725 453.365 310.252 490.74 308.992C504.915 308.505 518.585 303.611 529.849 294.99C541.113 286.369 549.411 274.451 553.587 260.893L554.952 256.474C554.952 256.474 547.369 230.388 430.757 219.732C430.757 219.732 406.122 224.713 375.952 219.82Z" fill="#722D54"/>
<path d="M636 455H610.133C606.913 455 600.712 441.953 598.475 442.065C596.238 442.177 594.26 455 594.26 455H592.271C583.38 429.521 595.506 425.022 595.506 425.022L595.575 425.068C597.896 437.283 615.088 439.727 618.606 440.104L619.234 440.512C619.234 440.512 627.448 448.728 631.447 449.283C635.445 449.838 636 455 636 455Z" fill="#722D54"/>
<path d="M552.296 253.954C568.375 258.879 576.275 370.305 619.237 440.512C619.237 440.512 597.756 439.011 595.509 425.022C595.509 425.022 530.299 359.315 528.558 320.088C526.817 280.861 542.407 250.925 552.296 253.954Z" fill="#B65A18"/>
<path d="M566.233 455H540.373C537.152 455 530.952 441.953 528.718 442.065C526.485 442.177 524.5 455 524.5 455H522.511C513.62 429.521 525.745 425.022 525.745 425.022L525.798 425.057L525.819 425.123C521.816 437.772 548.123 440.955 550.171 441.179C552.233 443.161 558.392 448.822 561.686 449.279C565.685 449.838 566.233 455 566.233 455Z" fill="#722D54"/>
<path d="M525.819 425.113C525.819 425.113 499.236 341.214 506.341 308.326C514.995 268.289 538.293 246.625 549.449 253.954C560.605 261.284 530.313 374.075 541.388 425.113C542.753 431.395 550.297 441.168 550.297 441.168C550.297 441.168 521.656 438.282 525.819 425.113Z" fill="#C36F0B"/>
<path d="M431.455 93.6224C431.455 93.6224 432.7 114.487 453.469 151.648C462.287 167.427 443.755 178.174 443.235 180.073C442.715 181.971 431.455 221.477 431.455 221.477C431.455 221.477 407.378 228.755 375.164 221.477C375.164 221.477 365.638 127.087 371.699 113.199C377.069 100.9 403.225 85.8252 403.225 85.8252C403.225 85.8252 415.522 93.7934 431.455 93.6224Z" fill="#F0E1D4"/>
<path d="M395.123 92.2158C405.902 107.262 417.773 104.362 417.773 104.362L425.38 94.3484C425.38 94.3484 430.062 103.79 433.018 105.866" stroke="#D8BAA3" stroke-width="5" stroke-linecap="round" stroke-linejoin="round"/>
<path d="M407.409 167.63C414.768 180.519 432.023 175.308 432.023 175.308" stroke="#D8BAA3" stroke-width="5" stroke-miterlimit="10" stroke-linecap="round"/>
<path d="M483.67 213.45C483.184 213.766 482.605 213.91 482.027 213.857C481.449 213.805 480.906 213.559 480.484 213.16C479.469 212.284 477.742 210.187 476.349 209.038C477.356 211.124 478.247 213.263 479.019 215.446C476.792 215.687 474.54 215.569 472.35 215.097C470.508 214.727 468.163 211.241 465.808 209.23C463.453 207.22 459.045 208.812 454.408 208.571C449.771 208.33 445.848 202.033 445.848 202.033C445.848 202.033 371.608 218.696 359.932 206.222C357.057 203.154 355.801 200.239 356.01 197.664C355.176 188.366 356.104 176.422 357.95 165.019C364.011 167.148 375.094 170.632 386.173 172.031C385.223 178.031 384.243 183.493 383.496 187.462C394.903 188.324 442.485 191.964 449.052 193.095C456.093 194.296 470.173 201.328 472.577 202.382C474.615 203.105 478.324 206.309 479.465 207.517C480.606 208.724 483.67 213.45 483.67 213.45Z" fill="#C36F0B"/>
<path d="M386.18 172.028C386.002 173.165 385.831 174.282 385.639 175.371C373.077 173.438 361.834 174.893 356.513 175.863C356.886 172.262 357.378 168.611 357.961 165.016C364.008 167.145 375.087 170.628 386.18 172.028Z" fill="#B65A18"/>
<path d="M376.409 106.285C369.43 112.767 360.682 136.068 353.236 163.267C353.236 163.267 371.182 170.544 388.329 172.275C388.329 172.275 396.295 136.588 396.121 118.222C395.946 99.8562 385.632 97.7481 376.409 106.285Z" fill="#F0E1D4"/>
<path d="M388.654 172.276C388.654 172.276 391.717 159.491 394.781 143.858" stroke="#D8BAA3" stroke-width="5" stroke-miterlimit="10" stroke-linecap="round"/>
<path d="M476.754 214.717C476.754 214.717 472.441 207.08 470.972 206.274C468.404 204.833 465.04 202.937 465.04 202.937" stroke="#B65A18" stroke-width="3" stroke-miterlimit="10" stroke-linecap="round"/>
<path d="M473.732 214.56C473.732 214.56 469.915 208.277 468.456 207.457C465.888 206.016 462.524 204.121 462.524 204.121" stroke="#B65A18" stroke-width="3" stroke-miterlimit="10" stroke-linecap="round"/>
<path d="M413.097 60.1858C413.097 60.1858 414.657 76.4713 403.225 85.8252C403.225 85.8252 417.773 95.5281 431.455 93.6224L436.305 73.0055L413.097 60.1858Z" fill="#C36F0B"/>
<path d="M436.308 73.0055L431.458 93.6224L430.858 93.6957C415.121 86.2405 413.317 67.5537 413.121 64.0949C413.2 62.7927 413.192 61.4868 413.097 60.1858L436.308 73.0055Z" fill="#B65A18"/>
<path d="M413.097 60.1859C413.097 60.1859 415.445 81.4939 442.467 84.8725C442.467 84.8725 455.846 76.9426 454.293 50.9088C453.037 29.8172 428.956 24.8297 419.863 36.5255C410.769 48.2213 413.097 60.1859 413.097 60.1859Z" fill="#C36F0B"/>
<path d="M446.602 21.1787C453.277 22.6237 468.055 31.3598 460.689 49.4498" stroke="#FFB000" stroke-width="3" stroke-miterlimit="10"/>
<path d="M413.596 20.76C413.596 20.76 419.765 5.51454 408.802 0.474609" stroke="#FFB000" stroke-width="3" stroke-miterlimit="10"/>
<path d="M432.205 46.0503C426.203 42.2111 423.673 34.2987 424.451 31.3599" stroke="#FFB000" stroke-width="3" stroke-miterlimit="10"/>
<path d="M412.79 65.9413C412.79 65.9413 396.124 57.61 399.258 37.5166C399.502 36.0139 399.896 34.5395 400.434 33.1154C397.946 33.255 388.057 33.0805 383.702 22.1316C379.403 11.3362 388.915 -2.98079 405.239 1.76945C413.093 4.05557 413.547 14.6206 413.393 18.9275C414.226 18.5814 415.082 18.2933 415.955 18.0654C426.863 15.2453 443.238 18.6902 448.877 21.5557C454.97 24.6516 466.324 35.7017 455.347 51.1461C455.041 51.5784 454.712 51.9943 454.363 52.3921C454.363 51.9035 454.321 51.4113 454.293 50.9087C454.215 49.5514 454.031 48.2024 453.741 46.874C447.241 44.9055 439.986 45.6315 435.865 45.9386C430.544 42.6787 426.845 36.0437 424.874 32.3685C424.462 32.5814 424.061 32.8153 423.673 33.0666C423.673 33.0666 423.412 47.9979 412.856 57.5542C412.877 58.4361 412.96 59.3155 413.104 60.1858L412.79 65.9413Z" fill="#FFB000"/>
<path d="M451.445 63.8681C455.525 63.8681 458.832 60.56 458.832 56.4792C458.832 52.3984 455.525 49.0903 451.445 49.0903C447.366 49.0903 444.058 52.3984 444.058 56.4792C444.058 60.56 447.366 63.8681 451.445 63.8681Z" stroke="#F0E1D4" stroke-width="5" stroke-miterlimit="10"/>
<path d="M433.025 63.8681C437.105 63.8681 440.412 60.56 440.412 56.4792C440.412 52.3984 437.105 49.0903 433.025 49.0903C428.945 49.0903 425.638 52.3984 425.638 56.4792C425.638 60.56 428.945 63.8681 433.025 63.8681Z" stroke="#F0E1D4" stroke-width="5" stroke-miterlimit="10"/>
<path d="M444.062 56.4792H440.408" stroke="#F0E1D4" stroke-width="5" stroke-miterlimit="10"/>
<path d="M425.638 55.2577L416.345 53.0239" stroke="#F0E1D4" stroke-width="5" stroke-miterlimit="10"/>
<path d="M412.755 53.5823L418.631 18.8264C418.815 17.7972 419.2 16.8144 419.764 15.9341C420.327 15.0538 421.059 14.2932 421.917 13.6959C422.775 13.0985 423.742 12.676 424.763 12.4526C425.784 12.2292 426.839 12.2092 427.868 12.3938L440.551 14.8126C441.334 14.9665 442.025 15.4229 442.474 16.0828C442.923 16.7427 443.093 17.5529 442.949 18.3377" stroke="#3F4D79" stroke-width="4" stroke-miterlimit="10" stroke-linecap="round"/>
<path d="M412.699 60.8699L412.42 66.3635C412.368 69.3128 413.927 72.4331 417.029 72.995L442.153 77.7348" stroke="#3F4D79" stroke-width="4" stroke-miterlimit="10" stroke-linecap="round"/>
<path d="M412.417 63.3152C415.506 63.2968 417.993 60.3005 417.971 56.6227C417.949 52.9448 415.427 49.9782 412.338 49.9966C409.249 50.0149 406.763 53.0113 406.784 56.6891C406.806 60.3669 409.328 63.3335 412.417 63.3152Z" fill="#3F4D79"/>
<path d="M442.294 80.5539C443.967 80.5439 445.316 79.3968 445.308 77.9916C445.3 76.5863 443.937 75.4552 442.264 75.4652C440.591 75.4751 439.242 76.6223 439.25 78.0275C439.259 79.4327 440.622 80.5638 442.294 80.5539Z" fill="#3F4D79"/>
<path d="M528.983 220.277H534.737C536.025 220.277 537.285 219.901 538.361 219.194C539.438 218.488 540.285 217.483 540.799 216.301L578.013 130.79C578.446 129.783 578.623 128.685 578.528 127.593C578.433 126.501 578.068 125.45 577.468 124.533C576.867 123.616 576.048 122.863 575.085 122.34C574.122 121.818 573.044 121.542 571.948 121.538L528.983 220.277Z" fill="white" stroke="#D8BAA3" stroke-width="3" stroke-miterlimit="10"/>
<path d="M424.703 229.742H525.334C529.954 229.742 533.708 225.505 533.708 220.277H433.067C428.447 220.277 424.692 224.514 424.692 229.742H424.703Z" fill="white" stroke="#D8BAA3" stroke-width="3" stroke-miterlimit="10"/>
</g>
<g clip-path="url(#clip1_2012_539625)">
<path d="M17.3472 215.692H156.052C156.534 215.692 156.996 215.883 157.337 216.224C157.678 216.564 157.869 217.026 157.869 217.508V228.188C157.869 228.67 157.678 229.132 157.337 229.472C156.996 229.812 156.534 230.004 156.052 230.004H83.887V255.733" stroke="#FFB000" stroke-width="3" stroke-miterlimit="10"/>
<path d="M33.715 23.4998L26.8123 74.0194C25.0782 86.6632 27.0326 99.5384 32.441 111.1L42.5307 132.585C49.2347 146.861 60.8079 158.013 74.979 163.853L105.443 176.41L33.715 23.4998Z" fill="white" stroke="#FFB000" stroke-width="3" stroke-miterlimit="10"/>
<path d="M56.7056 215.742H15.3316C5.93033 215.742 -0.961788 206.522 1.33085 197.001L20.4953 132.206C22.2698 124.823 28.6367 119.649 35.9334 119.649" stroke="#FFB000" stroke-width="3" stroke-miterlimit="10"/>
<path d="M108.074 179.261C107.68 179.258 107.296 179.142 106.967 178.928C106.637 178.714 106.376 178.409 106.214 178.051L33.176 22.2834C32.5017 20.8473 33.5061 19.1736 35.0357 19.1736C35.4311 19.1748 35.8179 19.2894 36.15 19.5037C36.4822 19.718 36.7458 20.0231 36.9095 20.3828L109.933 176.151C110.608 177.587 109.603 179.261 108.074 179.261Z" fill="white" stroke="#FFB000" stroke-width="3" stroke-miterlimit="10"/>
<path d="M62.4833 214.83C65.4332 214.83 67.8245 212.441 67.8245 209.494C67.8245 206.546 65.4332 204.157 62.4833 204.157C59.5334 204.157 57.1421 206.546 57.1421 209.494C57.1421 212.441 59.5334 214.83 62.4833 214.83Z" stroke="#FFB000" stroke-width="5" stroke-miterlimit="10"/>
<path d="M57.1598 210.21C57.064 206.955 59.2111 204.253 62.4833 204.157L63.0014 204.139C64.3902 204.099 65.7784 204.236 67.1325 204.547L110.348 214.54" stroke="#FFB000" stroke-width="5" stroke-miterlimit="10"/>
<path d="M305.141 161.917L270.833 288.225C269.094 294.638 265.291 300.301 260.01 304.338C254.729 308.376 248.264 310.564 241.614 310.565H125.407" stroke="#FFB000" stroke-width="3" stroke-miterlimit="10"/>
<path d="M134.801 310.551L228.473 452.539" stroke="#FFB000" stroke-width="3" stroke-miterlimit="10" stroke-linecap="round"/>
<path d="M237.345 310.551L135.156 453.958" stroke="#FFB000" stroke-width="3" stroke-miterlimit="10" stroke-linecap="round"/>
<path d="M136.341 404.083C136.341 404.083 131.468 411.53 123.008 410.487L117.287 402.307C123.188 401.039 128.963 399.242 134.542 396.938C135.124 399.658 135.731 402.151 136.341 404.083Z" fill="#FFCFC9"/>
<path d="M256.946 274.201C253.518 281.871 242.097 301.799 215.828 302.625C183.262 303.65 123.348 300.579 123.348 300.579C123.348 300.579 137.051 354.677 137.345 395.672C137.345 395.672 126.546 401.147 110.515 403.551C110.515 403.551 53.0217 296.108 64.4387 269.839C72.935 250.297 137.512 242.698 166.703 240.245C178.833 247.273 219.195 269.297 256.946 274.201Z" fill="url(#paint0_linear_2012_539625)"/>
<path d="M136.341 404.083C136.341 404.083 142.261 410.587 148.795 415.75C152.933 419.019 151.307 425.324 147.783 430.621C142.483 438.566 136.602 446.108 130.187 453.185C130.187 453.185 121.02 454.153 103.18 453.422C103.18 453.422 102.512 447.096 108.819 444.238C123.192 437.724 126.429 420.48 123.015 410.505C123.008 410.487 130.187 411.767 136.341 404.083Z" fill="#3F4D79"/>
<path d="M151.609 417.597C153.327 421.239 150.771 426.714 148.138 430.621C148.138 430.621 138.35 444.256 130.897 453.521L102.825 453.759" stroke="#FFB000" stroke-width="7" stroke-miterlimit="10" stroke-linecap="round"/>
<path d="M121.191 439.472C121.191 439.472 114.714 435.238 119.416 432.65" stroke="#FFB000" stroke-width="5" stroke-miterlimit="10" stroke-linecap="round"/>
<path d="M124.739 435.572C124.739 435.572 116.843 431.338 121.545 428.749" stroke="#FFB000" stroke-width="5" stroke-miterlimit="10" stroke-linecap="round"/>
<path d="M220.526 95.6464C220.526 95.6464 250.267 87.4587 252.371 63.1439C252.73 59.027 220.526 95.6464 220.526 95.6464Z" fill="#6562CF"/>
<path d="M220.885 48.123C220.885 48.123 233.721 74.9413 245.532 84.9517C245.532 84.9517 226.677 97.4796 210.848 97.4725C210.848 97.4725 200.485 79.2391 196.191 72.2641L220.885 48.123Z" fill="#FFCFC9"/>
<path d="M205.897 88.8167C202.622 83.1183 198.515 76.0512 196.191 72.2641L214.979 53.9065L216.267 56.4702C217.637 68.7606 214.206 82.1715 205.897 88.8167Z" fill="#FFC0B7"/>
<path d="M216.764 53.4846C216.764 53.4846 216.707 63.768 212.793 69.4593C207.867 76.6257 195.328 84.3524 185.785 82.934C176.242 81.5157 167.919 33.2229 175.078 30.3648C182.236 27.5067 202.235 24.8827 208.197 33.6945C214.159 42.5063 216.764 53.4846 216.764 53.4846Z" fill="#FFCFC9"/>
<path d="M226.78 59.4453C226.78 59.4453 222.624 60.112 216.583 57.3426C216.771 55.0873 216.857 50.4563 214.521 49.123C211.973 47.6691 210.518 51.7718 210.067 53.325C209.523 52.9042 208.973 52.4515 208.417 51.9669C198.48 43.3395 201.067 34.8929 201.067 34.8929C201.067 34.8929 186.282 43.5806 172.196 43.0061C160.506 42.531 154.781 26.184 164.637 21.3118C164.637 21.3118 163.927 25.7904 172.53 23.6451C181.133 21.4997 179.461 12.7731 191.517 11.2377C206.373 9.36183 209.443 19.1949 209.443 19.1949C209.443 19.1949 216.558 15.4538 223.884 22.2586C231.688 29.5101 221.605 49.7506 226.78 59.4453Z" fill="#FFB000"/>
<path d="M202.586 33.3186C202.586 33.3186 188.766 44.3324 173.747 46.2863C159.619 48.1231 153.429 29.8932 163.029 23.2834" stroke="#FFB000" stroke-width="4" stroke-miterlimit="10"/>
<path d="M208.165 19.929C208.165 19.929 212.995 13.0639 222.141 17.0922" stroke="#FFB000" stroke-width="4" stroke-miterlimit="10"/>
<path d="M260.069 274.57C271.142 263.733 285.246 195.392 281.562 151.577C281.331 146.589 280.6 141.637 279.379 136.794V136.794C278.752 133.943 277.91 131.144 276.863 128.419C273.669 120.263 266.365 111.752 256.208 105.941C245.856 98.533 232.348 93.409 214.447 96.4018C187.801 100.856 181.616 127.433 180.182 139.532L180.16 139.51L172.931 180.119L120.179 182.108V199.349C120.179 199.349 163.466 225.731 194.129 218.086L194.399 218.015C179.848 232.234 163.054 238.085 163.054 238.085C163.054 238.085 214.149 269.758 260.069 274.57Z" fill="#0DCAF0"/>
<path d="M220.037 162.542C220.037 162.542 209.936 213.373 191.159 219.859" stroke="white" stroke-width="5" stroke-miterlimit="10" stroke-linecap="round"/>
<path d="M220.526 95.6464C228.756 94.5826 250.565 80.7285 252.354 62.4915C252.354 62.4915 285.143 95.6464 273.133 122.138C273.133 122.138 266.447 109.728 251.988 102.185C234.683 93.1678 220.526 95.6464 220.526 95.6464Z" fill="#0DCAF0"/>
<path d="M276.033 123.575C276.033 123.575 266.095 110.376 251.988 102.185C232.238 90.7139 207.942 96.7244 207.942 96.7244" stroke="white" stroke-width="5" stroke-miterlimit="10" stroke-linecap="round"/>
<path d="M120.35 193.221C120.35 193.221 115.108 201.501 109.529 200.313C103.95 199.125 98.7575 198.31 95.929 199.764C92.4332 201.561 88.9624 205.529 86.6804 205.455C83.9178 205.383 81.1949 204.781 78.6597 203.682C80.0956 200.758 81.6781 197.908 83.4011 195.143C81.4669 196.366 78.901 198.877 77.4814 199.827C75.2101 201.352 73.6201 199.182 73.6201 199.182C73.6201 199.182 77.5453 193.611 79.263 192.161C80.9133 190.767 86.8685 186.445 89.4663 186.062C92.5859 185.321 107.978 183.069 120.385 182.222L120.35 193.221Z" fill="#FFCFC9"/>
<path d="M81.5557 203.76C81.5557 203.76 88.5152 193.576 90.4494 192.86C93.8564 191.601 98.2997 189.938 98.2997 189.938" stroke="#F7B3AF" stroke-width="4" stroke-miterlimit="10" stroke-linecap="round"/>
<path d="M84.9448 204.682C84.9448 204.682 91.2336 196.172 93.1643 195.462C96.5713 194.203 101.018 192.537 101.018 192.537" stroke="#F7B3AF" stroke-width="4" stroke-miterlimit="10" stroke-linecap="round"/>
</g>
<defs>
<linearGradient id="paint0_linear_2012_539625" x1="69.1459" y1="250.806" x2="275.679" y2="325.106" gradientUnits="userSpaceOnUse">
<stop stop-color="#9013FE"/>
<stop offset="1" stop-color="#6A10F3"/>
</linearGradient>
<clipPath id="clip0_2012_539625">
<rect width="306" height="455" fill="white" transform="translate(330)"/>
</clipPath>
<clipPath id="clip1_2012_539625">
<rect width="306" height="444" fill="white" transform="translate(0 11)"/>
</clipPath>
</defs>
</svg>
