<svg width="50" height="50" viewBox="0 0 50 50" fill="none" xmlns="http://www.w3.org/2000/svg">
<rect width="50" height="50.9804" rx="12" fill="url(#paint0_linear_2114_204238)"/>
<path d="M19.4375 29.8395C19.625 29.8395 19.7969 29.8076 19.9687 29.7439C20.1406 29.6801 20.2813 29.5845 20.4219 29.4412L23.6875 26.1115C23.9063 25.9044 24 25.6495 24 25.3627C24 25.076 23.8906 24.8211 23.6875 24.614C23.4844 24.4069 23.2344 24.2953 22.9531 24.2953C22.6719 24.2953 22.4219 24.4069 22.2188 24.614L19.4375 27.4497L18.7656 26.7647C18.5625 26.5417 18.3125 26.4461 18.0313 26.4461C17.75 26.4461 17.5 26.5576 17.2969 26.7647C17.0781 26.9718 16.9844 27.2267 16.9844 27.5135C16.9844 27.8002 17.0938 28.0551 17.2969 28.2622L18.4531 29.4412C18.5938 29.5845 18.75 29.6801 18.9063 29.7439C19.0781 29.8076 19.25 29.8395 19.4375 29.8395Z" fill="#F8F9FA"/>
<path d="M13 22.0809C14.375 20.6789 16.0312 19.9779 17.9688 19.9779H36.25V15.9314H39.0625V27.163C39.0625 29.1544 38.375 30.8431 37 32.2292C35.625 33.6311 33.9688 34.3321 32.0312 34.3321H17.9688C16.0312 34.3321 14.3594 33.6311 13 32.2292C11.6406 30.8272 10.9375 29.1385 10.9375 27.163C10.9375 25.1875 11.625 23.4828 13 22.0968V22.0809ZM14.9844 30.1899C15.7969 31.0184 16.7969 31.4485 17.9688 31.4485H32.0312C33.2031 31.4485 34.2031 31.0343 35.0156 30.1899C35.8281 29.3456 36.25 28.3419 36.25 27.1471V22.8456H17.9688C16.7969 22.8456 15.7969 23.2598 14.9844 24.1042C14.1563 24.9485 13.75 25.9522 13.75 27.1471C13.75 28.3419 14.1563 29.3615 14.9844 30.1899Z" fill="#F8F9FA"/>
<defs>
<linearGradient id="paint0_linear_2114_204238" x1="1.59978" y1="3.29699" x2="56.8438" y2="19.7043" gradientUnits="userSpaceOnUse">
<stop stop-color="#9013FE"/>
<stop offset="1" stop-color="#6A10F3"/>
</linearGradient>
</defs>
</svg>
