<svg width="16" height="16" viewBox="0 0 16 16" fill="none" xmlns="http://www.w3.org/2000/svg">
<path fill-rule="evenodd" clip-rule="evenodd" d="M9.88554 6.1143C10.9269 7.1557 10.9269 8.84414 9.88554 9.88554C8.84414 10.9269 7.1557 10.9269 6.1143 9.88554C5.0729 8.84414 5.0729 7.1557 6.1143 6.1143C7.1557 5.0729 8.84414 5.0729 9.88554 6.1143" fill="#F8F9FA"/>
<path d="M9.88554 6.1143C10.9269 7.1557 10.9269 8.84414 9.88554 9.88554C8.84414 10.9269 7.1557 10.9269 6.1143 9.88554C5.0729 8.84414 5.0729 7.1557 6.1143 6.1143C7.1557 5.0729 8.84414 5.0729 9.88554 6.1143" stroke="#F8F9FA" stroke-linecap="round" stroke-linejoin="round"/>
<path d="M12.2426 3.75736C14.5858 6.10051 14.5858 9.89949 12.2426 12.2426C9.89948 14.5858 6.10049 14.5858 3.75736 12.2426C1.41421 9.89948 1.41421 6.10049 3.75736 3.75736C6.10051 1.41421 9.89949 1.41421 12.2426 3.75736" stroke="#F8F9FA" stroke-linecap="round" stroke-linejoin="round"/>
</svg>
