<svg width="663" height="860" viewBox="0 0 663 860" fill="none" xmlns="http://www.w3.org/2000/svg">
<g filter="url(#filter0_d_0_1)">
<rect x="16" y="8" width="631" height="828" rx="24" fill="url(#paint0_linear_0_1)"/>
</g>
<g clip-path="url(#clip0_0_1)">
<path d="M546.312 506.351C546.312 508.28 545.547 510.13 544.186 511.495C542.824 512.859 540.978 513.625 539.052 513.625H426.227C424.302 513.625 422.456 512.859 421.094 511.495C419.733 510.13 418.968 508.28 418.968 506.351C418.968 504.422 419.733 502.571 421.094 501.207C422.456 499.843 424.302 499.077 426.227 499.077H539.052C540.978 499.077 542.824 499.843 544.186 501.207C545.547 502.571 546.312 504.422 546.312 506.351Z" fill="white" stroke="#FFB000" stroke-width="3" stroke-miterlimit="10"/>
<path d="M505.957 525.344H463.49C462.126 525.344 460.819 524.802 459.855 523.836C458.891 522.87 458.35 521.56 458.35 520.194V513.625H511.093V520.198C511.092 521.562 510.551 522.871 509.588 523.836C508.625 524.801 507.319 525.343 505.957 525.344V525.344Z" fill="white" stroke="#FFB000" stroke-width="3" stroke-miterlimit="10"/>
<path d="M479.159 614.485H490.269V525.344H479.159V614.485Z" fill="white" stroke="#FFB000" stroke-width="3" stroke-miterlimit="10"/>
<path d="M478.422 637.48H491.014C493.467 637.48 495.456 635.486 495.456 633.028V618.937C495.456 616.478 493.467 614.485 491.014 614.485H478.422C475.968 614.485 473.979 616.478 473.979 618.937V633.028C473.979 635.486 475.968 637.48 478.422 637.48Z" fill="white" stroke="#FFB000" stroke-width="3" stroke-miterlimit="10"/>
<path d="M533.887 658.19C533.887 652.697 531.71 647.429 527.834 643.545C523.958 639.661 518.701 637.48 513.22 637.48H456.212C450.731 637.48 445.474 639.661 441.598 643.545C437.722 647.429 435.545 652.697 435.545 658.19" stroke="#6562CF" stroke-width="5" stroke-miterlimit="10"/>
<path d="M534.261 668.949C538.834 668.949 542.54 665.234 542.54 660.652C542.54 656.07 538.834 652.356 534.261 652.356C529.689 652.356 525.982 656.07 525.982 660.652C525.982 665.234 529.689 668.949 534.261 668.949Z" fill="white" stroke="#FFB000" stroke-width="3" stroke-miterlimit="10"/>
<path d="M435.022 668.949C439.595 668.949 443.301 665.234 443.301 660.652C443.301 656.07 439.595 652.356 435.022 652.356C430.449 652.356 426.743 656.07 426.743 660.652C426.743 665.234 430.449 668.949 435.022 668.949Z" fill="white" stroke="#FFB000" stroke-width="5" stroke-miterlimit="10"/>
<path d="M485.014 668.949C489.586 668.949 493.293 665.234 493.293 660.652C493.293 656.07 489.586 652.356 485.014 652.356C480.441 652.356 476.734 656.07 476.734 660.652C476.734 665.234 480.441 668.949 485.014 668.949Z" fill="white" stroke="#FFB000" stroke-width="3" stroke-miterlimit="10"/>
<path d="M377.085 625.691C373.39 634.475 370.025 641.677 367.459 646.402C365.55 649.915 362.225 670.407 344.744 662.151C344.127 661.86 351.641 659.917 354.011 642.964C354.841 637.021 355.602 631.289 356.294 625.768C363.132 626.233 371.807 625.95 377.085 625.691Z" fill="#FFCFC9"/>
<path d="M373.306 670.407C373.306 670.407 380.344 646.002 370.933 642.277C367.927 641.088 364.283 644.096 363.31 654.367C362.457 663.347 349.365 664.74 348.131 658.935C348.131 658.935 332.081 662.209 332.081 670.407H373.306Z" fill="#3F4D79"/>
<path d="M381.836 625.415C381.836 625.415 362.396 626.808 352.171 625.349C352.171 625.349 338.596 483.444 340.625 468.844C343.068 451.28 401.418 435.713 431.585 430.777L437.142 405.557C437.142 405.557 477.954 404.829 500.999 404.829C500.999 404.829 525.681 448.839 523.14 477.937C520.599 507.035 467.381 500.43 396.308 500.43C396.308 500.43 417.977 544.262 381.836 625.415Z" fill="#6562CF"/>
<path d="M441.058 626.382C435.651 626.864 430.21 626.82 424.812 626.251C426.627 633.326 428.303 640.073 429.636 646.1C430.496 649.97 424.968 655.193 423.392 658.994L423.516 658.935C430.775 657.775 440.514 664.664 439.512 653.912C438.51 643.161 440.049 640.48 441.058 626.382Z" fill="#FFCFC9"/>
<path d="M439.294 646.001C441.791 646.001 445.849 650.526 445.446 657.771C445.215 662.095 444.321 666.356 442.797 670.407H414.728C415.222 662.605 423.516 658.935 423.516 658.935C430.775 657.775 440.151 664.664 439.149 653.912L439.294 646.001Z" fill="#3F4D79"/>
<path d="M461.268 444.417C461.268 444.417 399.408 455.619 392.38 474.187C385.353 492.755 418.133 625.404 418.133 625.404C437.138 628.314 446.887 625.404 446.887 625.404C466.655 534.561 443.494 504.43 443.494 504.43C489.558 502.47 518.628 506.849 523.143 477.959C524.584 468.786 514.291 433.698 461.268 444.417Z" fill="#6562CF"/>
<path d="M460.179 444.417C460.179 444.417 398.319 455.619 391.292 474.187C384.264 492.755 417.044 625.404 417.044 625.404" stroke="white" stroke-width="5" stroke-miterlimit="10"/>
<path d="M446.579 384.977C450.256 376.648 433.933 365.7 417.229 370.065C417.229 370.065 422.863 302.893 436.064 294.429C448.876 286.216 451.962 324.898 452.397 334.344C452.383 334.344 454.753 370.887 446.579 384.977Z" fill="#EAEEFF"/>
<path d="M445.142 387.003C453.232 379.729 436.503 364.925 417.229 370.065C405.171 371.942 358.298 381.955 353.891 384.25C349.586 386.174 337.155 392.441 335.572 394.343C333.576 396.744 333.271 403.094 333.394 403.931C333.518 404.767 335.155 409.121 335.155 409.121C335.155 409.121 338.295 408.797 337.895 405.375C337.416 401.305 341.031 400.043 343.449 398.952C344.458 398.5 347.078 398.686 347.539 400.217C348 401.749 344.178 403.604 343.547 404.713C342.607 406.393 343.695 408.274 343.717 408.314C343.739 408.354 349.547 405.178 350.668 404.582C351.699 404.033 356.545 398.366 358.599 393.372C358.613 393.368 430.939 399.792 445.142 387.003Z" fill="#FFC0B7"/>
<path d="M436.165 258.286C434.804 254.973 429.164 237.827 438.303 230.422C447.443 223.016 459.497 215.418 474.081 216.6C488.665 217.782 492.73 237.241 500.995 240.369C509.26 243.497 519.343 239.787 528.871 248.371C538.399 256.955 528.508 270.467 538.218 277.68C547.927 284.892 557.284 275.767 567.012 288.511C578.162 303.126 561.876 320.013 577.705 321.468C595.207 323.076 605.766 352.77 598.253 372.48H507.082C448.869 363.467 436.165 258.286 436.165 258.286Z" fill="#FFB000"/>
<path d="M442.448 229.396C451.334 221.507 461.664 216.258 476.277 216.975C490.89 217.691 496.509 234.004 504.872 236.928C513.234 239.853 523.779 235.725 533.59 244.203C543.401 252.681 533.953 267.743 543.916 274.81C553.88 281.877 562.907 272.224 573.055 284.965C584.696 299.576 568.983 316.245 584.852 317.213C602.398 318.286 613.867 340.516 605.055 365.722" stroke="#FFB000" stroke-width="5" stroke-miterlimit="10"/>
<path d="M436.866 405.302C436.866 405.302 431.697 363.089 428.964 360.877C422.826 355.909 417.944 348.784 420.503 338.945C421.955 333.391 433.625 296.575 436.111 294.236C438.597 291.898 454.913 286.053 454.913 286.053H501.01C506.258 287.806 522.737 293.745 526.675 299.79C545.912 329.31 552.065 376.659 552.065 376.659H528.145C528.145 376.659 516.632 350.766 512.538 350.471C508.443 350.177 500.774 404.938 500.774 404.938C500.774 404.938 474.549 412.231 436.866 405.302Z" fill="#EAEEFF"/>
<path d="M436.503 405.302C436.503 405.302 431.334 363.089 428.601 360.877C422.463 355.909 417.218 348.42 419.777 338.581" stroke="white" stroke-width="5" stroke-miterlimit="10"/>
<path d="M469.195 291.181C469.195 291.181 447.962 331.78 453.225 408.939" stroke="white" stroke-width="5" stroke-miterlimit="10"/>
<path d="M466.658 325.553C468.204 325.553 469.457 324.297 469.457 322.748C469.457 321.2 468.204 319.944 466.658 319.944C465.113 319.944 463.86 321.2 463.86 322.748C463.86 324.297 465.113 325.553 466.658 325.553Z" stroke="white" stroke-width="5" stroke-miterlimit="10"/>
<path d="M462.822 346.117C464.367 346.117 465.62 344.862 465.62 343.313C465.62 341.764 464.367 340.509 462.822 340.509C461.276 340.509 460.023 341.764 460.023 343.313C460.023 344.862 461.276 346.117 462.822 346.117Z" stroke="white" stroke-width="5" stroke-miterlimit="10"/>
<path d="M460.771 366.755C462.317 366.755 463.569 365.499 463.569 363.951C463.569 362.402 462.317 361.146 460.771 361.146C459.225 361.146 457.972 362.402 457.972 363.951C457.972 365.499 459.225 366.755 460.771 366.755Z" stroke="white" stroke-width="5" stroke-miterlimit="10"/>
<path d="M549.411 388.171C537.568 400.65 460.996 383.963 460.996 383.963C460.996 383.963 457.003 390.284 452.328 390.51C447.653 390.735 443.229 389.08 440.855 391.088C438.481 393.096 436.085 396.591 434.227 396.951C432.021 397.403 429.756 397.499 427.519 397.235C428.314 395.04 429.227 392.891 430.256 390.797C428.844 391.943 427.091 394.045 426.064 394.921C425.636 395.32 425.087 395.563 424.506 395.611C423.924 395.659 423.342 395.51 422.855 395.187C422.855 395.187 425.922 390.495 427.131 389.24C428.34 387.985 432.046 384.835 434.1 384.119C436.528 383.079 450.746 376.099 457.842 374.942C465.366 373.72 526.301 369.61 526.301 369.61C548.341 369.596 559.357 377.696 549.411 388.171Z" fill="#FFCFC9"/>
<path d="M429.81 396.504C429.81 396.504 434.209 388.84 435.683 388.029C438.278 386.596 441.664 384.712 441.664 384.712" stroke="#FFB0AF" stroke-width="3" stroke-miterlimit="10" stroke-linecap="round"/>
<path d="M432.851 396.365C432.851 396.365 436.739 390.062 438.212 389.251C440.808 387.818 444.194 385.934 444.194 385.934" stroke="#FFB0AF" stroke-width="3" stroke-miterlimit="10" stroke-linecap="round"/>
<path d="M473.58 257.715C473.58 257.715 479.994 277.869 500.995 286.053C500.995 286.053 471.537 298.914 454.898 286.053V258.297L473.58 257.715Z" fill="#FFCFC9"/>
<path d="M459.152 288.675C457.653 287.95 456.232 287.071 454.913 286.053V258.297L473.58 257.715C473.58 257.715 473.762 258.283 474.161 259.268C476.067 267.776 470.912 285.427 459.152 288.675Z" fill="#FFC0B7"/>
<path d="M473.09 260.818C472.898 267.445 460.452 283.034 453.646 283.034C448.005 283.034 437.476 265.986 436.147 258.301C434.786 250.393 436.165 236.368 447.417 236.172C454.372 236.052 457.943 242.599 460.031 250.19C462.571 259.352 470.368 257.297 470.368 257.297C470.368 257.297 472.6 252.205 475.711 254.751C478.821 257.297 473.09 260.818 473.09 260.818Z" fill="#FFCFC9"/>
<path d="M292.292 670.407L310.44 419.865L328.589 670.935" stroke="#FFB000" stroke-width="5" stroke-miterlimit="10"/>
<path d="M290.698 419.865H529.651C531.144 419.865 532.576 419.272 533.632 418.215C534.688 417.158 535.283 415.724 535.285 414.228V414.228C535.285 412.731 534.691 411.295 533.635 410.236C532.578 409.178 531.145 408.583 529.651 408.583H290.698V419.865Z" fill="white"/>
<path d="M290.698 419.865H529.651C531.144 419.865 532.576 419.272 533.632 418.215C534.688 417.158 535.283 415.724 535.285 414.228V414.228C535.285 412.731 534.691 411.295 533.635 410.236C532.578 409.178 531.145 408.583 529.651 408.583H290.698" stroke="#FFB000" stroke-width="3" stroke-miterlimit="10"/>
<path d="M385.35 323.414H288.92C287.857 323.415 286.811 323.673 285.869 324.166C284.927 324.659 284.118 325.372 283.51 326.245C282.902 327.119 282.514 328.126 282.378 329.182C282.241 330.238 282.361 331.311 282.728 332.311L307.047 398.508H419.966L394.812 330.03C394.1 328.09 392.811 326.415 391.119 325.232C389.427 324.049 387.413 323.414 385.35 323.414V323.414Z" stroke="black" stroke-miterlimit="10"/>
<path d="M386.217 323.414H289.432C284.956 323.414 281.849 328.168 283.396 332.652L304.448 393.907C304.868 395.223 305.689 396.375 306.795 397.201C307.902 398.026 309.239 398.483 310.618 398.508H418.884L395.448 330.288C394.025 326.156 390.341 323.414 386.217 323.414Z" fill="white"/>
<path d="M382.225 328.001H285.439C284.403 328 283.382 328.251 282.463 328.731C281.544 329.212 280.754 329.907 280.162 330.759C279.569 331.611 279.19 332.594 279.058 333.624C278.926 334.654 279.044 335.701 279.403 336.675L300.455 394.187C300.918 395.454 301.758 396.547 302.862 397.32C303.965 398.093 305.279 398.507 306.626 398.508H414.892L391.455 334.453C390.76 332.56 389.502 330.927 387.852 329.773C386.201 328.619 384.237 328.001 382.225 328.001Z" fill="#E2E2FF"/>
<path d="M306.822 398.508H491.522C494.097 398.508 496.566 399.533 498.387 401.357C500.208 403.182 501.231 405.657 501.231 408.237H316.531C313.956 408.237 311.486 407.212 309.665 405.388C307.844 403.563 306.822 401.088 306.822 398.508V398.508Z" fill="white" stroke="#6562CF" stroke-width="3" stroke-miterlimit="10"/>
<path d="M385.35 323.414H288.92C287.857 323.415 286.811 323.673 285.869 324.166C284.927 324.659 284.118 325.372 283.51 326.245C282.902 327.119 282.514 328.126 282.378 329.182C282.241 330.238 282.361 331.311 282.728 332.311L307.047 398.508H419.966L394.812 330.03C394.1 328.09 392.811 326.415 391.119 325.232C389.427 324.049 387.413 323.414 385.35 323.414V323.414Z" stroke="#6562CF" stroke-width="5" stroke-miterlimit="10"/>
<path d="M349.854 371.477C352.139 368.934 351.453 364.584 348.323 361.76C345.193 358.936 340.804 358.708 338.52 361.25C336.236 363.792 336.921 368.142 340.051 370.966C343.181 373.79 347.57 374.019 349.854 371.477Z" fill="#FFB000"/>
<path d="M352.073 369.161C354.357 366.619 353.672 362.269 350.542 359.445C347.412 356.621 343.023 356.392 340.738 358.934C338.454 361.477 339.14 365.827 342.269 368.651C345.399 371.475 349.788 371.703 352.073 369.161Z" stroke="#6562CF" stroke-width="5" stroke-miterlimit="10"/>
</g>
<g clip-path="url(#clip1_0_1)">
<path d="M219.791 109.142C219.791 114.592 222.873 117.974 228.811 119.214L233.923 120.267C236.14 120.718 237.004 121.657 237.004 123.499C237.004 125.604 234.937 126.919 231.63 126.919C228.323 126.919 226.594 125.566 226.594 123.123H219.303C219.303 129.4 224.113 133.421 231.555 133.421C238.996 133.421 244.258 129.212 244.258 122.785C244.258 117.523 241.402 114.667 235.464 113.464L230.465 112.412C228.135 111.923 227.082 110.909 227.082 108.879C227.082 106.662 228.962 105.309 231.968 105.309C234.712 105.309 236.478 106.737 236.478 109.105H243.732C243.732 102.79 239.222 98.8066 232.043 98.8066C224.865 98.8066 219.791 103.091 219.791 109.142Z" fill="#F8F9FA"/>
<path d="M248.28 143.644H255.233V130.565C256.548 132.294 259.442 133.459 262.524 133.459C269.251 133.459 273.122 128.31 273.122 121.206C273.122 114.103 268.763 109.556 262.486 109.556C259.292 109.556 256.435 110.946 255.195 113.013L254.819 110.27H248.28V143.644V143.644ZM255.27 121.545C255.27 118.162 257.525 115.907 260.757 115.907C263.989 115.907 266.132 118.2 266.132 121.545C266.132 124.89 264.065 127.182 260.757 127.182C257.45 127.182 255.27 124.927 255.27 121.545V121.545Z" fill="#F8F9FA"/>
<path d="M283.946 133.421C287.329 133.421 290.298 131.918 291.012 129.851L291.463 132.82H297.589V119.665C297.589 113.201 293.906 109.556 287.366 109.556C280.827 109.556 276.73 112.9 276.73 117.974H282.518C282.518 115.945 284.097 114.817 287.028 114.817C289.509 114.817 290.862 115.982 290.862 118.2V118.576L284.548 119.064C279.136 119.478 276.204 122.033 276.204 126.205C276.204 130.64 279.173 133.421 283.946 133.421ZM286.389 128.272C284.285 128.272 283.27 127.52 283.27 125.867C283.27 124.439 284.36 123.762 287.366 123.461L290.899 123.161V124.363C290.899 126.919 289.058 128.235 286.389 128.235V128.272Z" fill="#F8F9FA"/>
<path d="M309.541 132.82V120.455C309.541 117.674 311.307 115.87 314.051 115.87C316.456 115.87 318.035 117.711 318.035 120.567V132.82H324.988V118.876C324.988 112.976 321.868 109.556 316.494 109.556C313.562 109.556 311.007 110.683 309.578 112.637L309.127 110.307H302.588V132.857H309.541V132.82Z" fill="#F8F9FA"/>
<path d="M411.994 133.421C418.157 133.421 422.63 130.226 423.457 125.228H417.105C416.616 126.844 414.775 127.784 412.144 127.784C409.062 127.784 407.408 126.393 406.995 123.424L423.381 123.349V121.582C423.381 114.216 418.947 109.593 411.881 109.593C404.815 109.593 400.343 114.517 400.343 121.545C400.343 128.573 405.229 133.459 412.031 133.459L411.994 133.421ZM411.918 115.193C414.7 115.193 416.466 116.734 416.466 119.102H407.07C407.596 116.396 409.137 115.193 411.881 115.193H411.918Z" fill="#F8F9FA"/>
<path d="M443 110.27C442.06 110.044 441.158 109.969 440.332 109.969C437.325 109.969 435.333 111.472 434.393 113.652L434.018 110.307H427.478V132.82H434.431V123.048C434.431 118.576 436.836 116.809 440.783 116.809H443V110.27Z" fill="#F8F9FA"/>
<path d="M349.267 128.047C349.718 128.047 350.131 127.971 350.544 127.821C350.958 127.671 351.296 127.445 351.634 127.107L359.489 119.252C360.015 118.763 360.241 118.162 360.241 117.486C360.241 116.809 359.978 116.208 359.489 115.719C359.001 115.231 358.399 114.968 357.723 114.968C357.046 114.968 356.445 115.231 355.956 115.719L349.267 122.409L347.65 120.793C347.162 120.267 346.561 120.041 345.884 120.041C345.208 120.041 344.606 120.304 344.118 120.793C343.591 121.282 343.366 121.883 343.366 122.559C343.366 123.236 343.629 123.837 344.118 124.326L346.899 127.107C347.237 127.445 347.613 127.671 347.989 127.821C348.402 127.971 348.816 128.047 349.267 128.047V128.047Z" fill="#F8F9FA"/>
<path d="M333.782 109.743C337.089 106.436 341.073 104.782 345.734 104.782H389.706V95.2362H396.472V121.733C396.472 126.431 394.818 130.414 391.51 133.684C388.203 136.992 384.219 138.645 379.559 138.645H345.734C341.073 138.645 337.052 136.992 333.782 133.684C330.512 130.377 328.821 126.393 328.821 121.733C328.821 117.072 330.475 113.051 333.782 109.781V109.743ZM338.555 128.873C340.51 130.828 342.915 131.843 345.734 131.843H379.559C382.378 131.843 384.783 130.865 386.737 128.873C388.692 126.882 389.706 124.514 389.706 121.695V111.547H345.734C342.915 111.547 340.51 112.525 338.555 114.517C336.563 116.508 335.586 118.876 335.586 121.695C335.586 124.514 336.563 126.919 338.555 128.873Z" fill="#F8F9FA"/>
</g>
<path d="M142.045 623.853H201.44" stroke="#424D76" stroke-width="5" stroke-miterlimit="10" stroke-linecap="round"/>
<path d="M121.45 493.461L225.834 663.482" stroke="#424D76" stroke-width="5" stroke-miterlimit="10" stroke-linecap="round"/>
<path d="M222.036 493.461L117.651 663.482" stroke="#424D76" stroke-width="5" stroke-miterlimit="10" stroke-linecap="round"/>
<path d="M243.66 479.319C243.66 480.767 240.42 482.129 234.725 483.311C222.472 485.859 198.857 487.586 171.743 487.586C144.629 487.586 121.013 485.859 108.769 483.308C103.07 482.125 99.8331 480.764 99.8331 479.315C99.8331 474.751 132.031 471.048 171.75 471.048C211.47 471.048 243.66 474.752 243.66 479.319Z" fill="white" stroke="#FFB000" stroke-width="5" stroke-miterlimit="10"/>
<path d="M243.66 479.318V487.304C243.66 491.868 211.459 495.571 171.743 495.571C132.027 495.571 99.8253 491.871 99.8253 487.304V479.318C99.8253 480.767 103.066 482.129 108.761 483.311C121.013 485.859 144.625 487.586 171.743 487.586C198.861 487.586 222.472 485.859 234.724 483.308C240.419 482.129 243.66 480.767 243.66 479.318Z" fill="#FFD880" stroke="#FFB000" stroke-width="5" stroke-miterlimit="10"/>
<path d="M160.144 604.813C163.324 606.631 170.128 606.832 171.34 611.498C172.552 616.164 165.892 634.638 166.952 641.16C168.012 647.681 167.917 661.607 157.12 663.113C145.172 664.779 136.096 660.691 136.096 656.146C136.096 651.602 143.056 646.445 144.1 638.726C145.145 631.006 147.899 614.35 147.899 614.35L160.144 604.813Z" fill="#FFB000"/>
<path d="M144.906 625.15C144.906 625.15 149.947 620.777 157.678 625.15" stroke="white" stroke-width="4" stroke-linecap="round" stroke-linejoin="round"/>
<path d="M143.766 630.474C143.766 630.474 148.807 626.101 156.539 630.474" stroke="white" stroke-width="4" stroke-linecap="round" stroke-linejoin="round"/>
<path d="M142.626 635.798C142.626 635.798 147.668 631.425 155.399 635.798" stroke="white" stroke-width="4" stroke-linecap="round" stroke-linejoin="round"/>
<path d="M200.89 627.744C198.868 630.702 187.213 637.969 187.824 641.3C188.436 644.632 199.169 654.321 199.925 659.466C200.681 664.611 199.625 672.335 204.161 674.609C208.697 676.883 232.749 677.031 236.681 674.609C240.613 672.186 236.377 664.463 232.141 662.797C227.905 661.132 216.565 642.209 217.218 630.55L200.89 627.744Z" fill="#FFB000"/>
<path d="M222.199 641.407C222.199 641.407 217.157 637.034 209.426 641.407" stroke="white" stroke-width="4" stroke-linecap="round" stroke-linejoin="round"/>
<path d="M224.098 646.731C224.098 646.731 219.057 642.358 211.326 646.731" stroke="white" stroke-width="4" stroke-linecap="round" stroke-linejoin="round"/>
<path d="M226.378 652.055C226.378 652.055 221.336 647.681 213.605 652.055" stroke="white" stroke-width="4" stroke-linecap="round" stroke-linejoin="round"/>
<path d="M128.619 423.16C128.619 423.16 59 450.904 59 474.774C59 517.338 118.369 595.702 130.518 594.526C142.668 593.351 150.848 583.544 150.38 578.399C149.913 573.254 127.965 507.044 112.283 484.589C112.283 484.589 160.197 472.42 166.507 472.192C172.818 471.964 205.3 489.502 205.768 490.202C206.235 490.902 188.975 538.33 198.99 600.139C200.392 608.794 226.564 610.665 229.136 607.159C231.708 603.653 260.669 481.547 256.71 471.724C252.751 461.902 219.479 435.017 199.37 424.3C184.88 416.581 128.619 423.16 128.619 423.16Z" fill="#424D76"/>
<path d="M221.105 619.575C220.671 620.914 218.616 627.215 217.218 630.55C215.881 633.733 199.222 632.653 200.882 627.74C202.299 623.557 202.322 617.853 202.295 616.248C205.023 617.332 212.758 620.051 221.105 619.575Z" fill="#C36F0B"/>
<path d="M221.424 619.556L226.078 608.46C226.078 608.46 210.969 610.339 200.889 603.368L201.269 615.811C201.269 615.811 211.747 620.587 221.424 619.556Z" fill="#6562CF"/>
<path d="M153.275 591.72C153.275 591.72 158.784 603.147 160.144 604.813C161.504 606.479 153.944 614.955 147.895 614.35L138.23 601.311C138.23 601.311 148.598 599.371 153.275 591.72Z" fill="#C36F0B"/>
<path d="M149.765 581.696L153.655 591.72C153.655 591.72 147.618 600.105 137.471 601.691L130.519 594.527C130.519 594.527 143.538 592.956 149.765 581.696Z" fill="#6562CF"/>
<path d="M194.374 280.241C200.521 284.762 217.222 292.668 227.616 299.95C236.001 305.826 243.482 331.513 243.482 331.513C243.482 331.513 231.807 343.431 212.196 348.105C212.196 348.105 200.988 382.71 196.787 423.125C196.787 423.125 160.828 436.435 128.376 423.125C128.376 423.125 115.299 349.04 113.666 348.591C112.032 348.143 87.8012 340.701 79.8534 328.779C79.8534 328.779 89.2258 301.753 102.002 296.456C115.884 290.698 134.382 282.808 140.818 279.343C144.1 277.548 194.374 280.241 194.374 280.241Z" fill="#EAEAFF"/>
<path d="M108.457 293.736L81.2021 330.539C80.9057 330.186 80.6208 329.828 80.3587 329.463L106.083 294.736L108.457 293.736Z" fill="white"/>
<path d="M121.784 288.063L86.5853 335.597C86.232 335.327 85.8863 335.057 85.5482 334.783L119.36 289.12L121.784 288.063Z" fill="white"/>
<path d="M135.404 281.986L92.7134 339.624C92.3335 339.404 91.9536 339.183 91.5737 338.951L132.904 283.142C133.782 282.739 134.603 282.355 135.404 281.986Z" fill="white"/>
<path d="M146.923 278.746L99.3048 343.035C98.9021 342.849 98.4994 342.655 98.0929 342.461L145.24 278.792C145.772 278.773 146.33 278.754 146.923 278.746Z" fill="white"/>
<path d="M156.026 278.765L106.257 345.986L104.969 345.488L154.407 278.742L156.026 278.765Z" fill="white"/>
<path d="M164.996 278.989L113.487 348.515C113.225 348.435 112.769 348.294 112.157 348.097L163.377 278.944C163.913 278.955 164.445 278.97 164.996 278.989Z" fill="white"/>
<path d="M173.866 279.305L116.017 357.402C115.892 356.809 115.77 356.238 115.637 355.691L172.263 279.256L173.866 279.305Z" fill="white"/>
<path d="M182.707 279.678L117.996 367.046C117.879 366.457 117.765 365.875 117.651 365.304L181.123 279.606L182.707 279.678Z" fill="white"/>
<path d="M191.517 280.096L119.896 376.796C119.782 376.21 119.668 375.621 119.558 375.039L189.936 280.02L191.517 280.096Z" fill="white"/>
<path d="M198.534 282.941L121.742 386.615C121.636 386.025 121.526 385.436 121.416 384.847L197.398 282.252C197.763 282.477 198.143 282.705 198.534 282.941Z" fill="white"/>
<path d="M204.943 286.595L123.585 396.46C123.475 395.875 123.368 395.285 123.258 394.688L203.781 285.945C204.164 286.165 204.552 286.382 204.943 286.595Z" fill="white"/>
<path d="M211.409 290.177L125.367 406.343C125.264 405.762 125.158 405.168 125.048 404.568L210.251 289.534L211.409 290.177Z" fill="white"/>
<path d="M217.834 293.816L127.152 416.265C127.05 415.698 126.947 415.124 126.833 414.481L216.686 293.17L217.834 293.816Z" fill="white"/>
<path d="M224.125 297.63L130.549 423.984L129.284 423.479L223.019 296.923L224.125 297.63Z" fill="white"/>
<path d="M229.96 302.091L137.949 426.292C137.493 426.178 137.041 426.053 136.585 425.912L229.018 301.114C229.33 301.425 229.637 301.745 229.96 302.091Z" fill="white"/>
<path d="M234.291 308.529L145.859 427.935C145.373 427.863 144.883 427.783 144.396 427.692L233.581 307.278C233.82 307.685 234.056 308.107 234.291 308.529Z" fill="white"/>
<path d="M211.99 348.736C211.77 349.443 211.379 350.713 210.851 352.481L154.301 428.848C153.78 428.814 153.264 428.78 152.739 428.734L211.99 348.736Z" fill="white"/>
<path d="M237.885 315.986L214.559 347.481C213.89 347.667 213.21 347.861 212.526 348.013L237.274 314.594C237.479 315.066 237.684 315.53 237.885 315.986Z" fill="white"/>
<path d="M206.58 368.362C206.311 369.426 206.045 370.529 205.775 371.659L163.305 429.004C162.754 429.004 162.203 429.027 161.644 429.031L206.58 368.362Z" fill="white"/>
<path d="M241.027 324.06L227.301 342.606C226.488 343.009 225.648 343.408 224.775 343.8L240.495 322.573C240.678 323.082 240.856 323.592 241.027 324.06Z" fill="white"/>
<path d="M202.569 386.09C202.363 387.086 202.159 388.1 201.957 389.132L172.92 428.338C172.331 428.403 171.742 428.468 171.142 428.525L202.569 386.09Z" fill="white"/>
<path d="M199.567 402.468C199.419 403.4 199.267 404.335 199.123 405.279L183.231 426.726C182.612 426.848 181.974 426.973 181.331 427.106L199.567 402.468Z" fill="white"/>
<path d="M254.654 392.916C253.796 408.888 223.532 423.719 207.572 430.45C207.044 433.758 204.874 435.207 200.703 436.283C192.007 438.527 192.824 444.269 192.375 445.364C191.673 447.109 183.094 449.098 181.031 447.646C179.804 446.775 183.269 435.838 185.241 431.993C186.468 429.602 194.689 425.072 200.08 423.122C200.08 423.122 227.434 389.935 231.18 388.064C231.18 388.064 221.063 360.304 216.83 350.314C216.226 348.881 215.74 347.816 215.425 347.249C215.425 347.249 230.621 342.686 240.902 333.826C240.902 333.826 241.832 336.149 243.204 339.971C247.333 351.478 255.524 376.599 254.654 392.916Z" fill="#C36F0B"/>
<path d="M243.2 339.967C241.072 342.23 234.606 347.131 216.826 350.311C216.219 348.881 215.732 347.812 215.417 347.246C215.417 347.246 230.613 342.682 240.898 333.822C240.898 333.822 241.825 336.142 243.2 339.967Z" fill="#B65A18"/>
<path d="M145.183 447.261C142.877 448.281 135.989 446.372 135.358 445.36C134.728 444.349 133.839 438.059 127.035 435.899C122.164 434.351 119.953 432.811 120.037 428.001C105.877 423.16 68.2242 408.8 66.5184 392.498C65.3787 381.622 76.7419 350.512 81.487 338.119C82.7293 334.883 83.5157 332.92 83.5157 332.92C94.461 342.047 108.666 346.808 108.666 346.808L107.492 350.029L93.7885 387.593C100.027 389.962 122.745 417.889 126.286 422.274C133.668 423.703 141.574 428.841 142.497 431.609C143.466 434.511 147.557 446.208 145.183 447.261Z" fill="#C36F0B"/>
<path d="M83.5194 332.913C94.4609 342.039 108.67 346.8 108.67 346.8L107.496 350.017C99.9924 348.831 87.6681 345.93 81.4907 338.107C82.7292 334.875 83.5194 332.913 83.5194 332.913Z" fill="#B65A18"/>
<path d="M218.335 457.688H108.332L89.8147 384.835C89.5288 383.841 89.4779 382.795 89.666 381.777C89.8541 380.76 90.2762 379.801 90.8987 378.975C91.5212 378.15 92.3271 377.48 93.2526 377.02C94.1782 376.56 95.198 376.322 96.2314 376.325H230.45C231.483 376.325 232.501 376.565 233.424 377.026C234.348 377.487 235.152 378.156 235.773 378.982C236.393 379.807 236.814 380.765 237.001 381.781C237.189 382.797 237.138 383.843 236.852 384.835L218.335 457.688Z" fill="white" stroke="#6562CF" stroke-width="7" stroke-miterlimit="10"/>
<path d="M214.999 457.004H111.663L94.2672 388.555C93.1275 384.55 92.3221 379.808 96.4821 379.808H230.181C234.341 379.808 233.547 384.558 232.396 388.555L214.999 457.004Z" fill="#6562CF"/>
<path d="M169.623 424.266H157.044C156.622 424.266 156.212 424.124 155.879 423.865C155.546 423.605 155.309 423.242 155.205 422.833L153.705 414.721C153.668 414.591 153.661 414.454 153.686 414.321C153.711 414.188 153.766 414.063 153.847 413.955C153.929 413.847 154.034 413.759 154.155 413.699C154.276 413.639 154.409 413.607 154.544 413.607H172.123C172.258 413.607 172.391 413.639 172.512 413.699C172.633 413.759 172.738 413.847 172.82 413.955C172.901 414.063 172.956 414.188 172.981 414.321C173.006 414.454 172.999 414.591 172.962 414.721L171.454 422.844C171.348 423.25 171.112 423.61 170.78 423.867C170.449 424.124 170.042 424.265 169.623 424.266Z" stroke="white" stroke-width="6" stroke-linejoin="round"/>
<path d="M180.051 257.805C180.051 257.805 179.428 271.495 194.374 280.241C194.374 280.241 179.557 291.041 167.29 304.913C167.29 304.913 154.145 288.824 140.829 279.309C140.829 279.309 153.902 269.023 153.902 257.809L180.051 257.805Z" fill="#B65A18"/>
<path d="M192.771 250.268C191.27 252.238 188.561 255.93 187.254 258.581C184.929 271.202 176.997 279.553 166.94 279.553C158.225 279.553 152.337 269.772 149.624 260.68C149.56 260.515 149.507 260.346 149.464 260.174C148.792 257.668 145.149 252.682 143.317 250.287C143.172 250.096 143.07 249.877 143.016 249.643C142.963 249.409 142.96 249.167 143.008 248.932C143.056 248.697 143.153 248.476 143.294 248.282C143.434 248.088 143.615 247.926 143.823 247.807C146.057 246.526 147.215 247.458 147.823 248.674C147.5 239.582 147.876 230.041 153.165 229.988C159.243 229.931 179.459 229.531 182.961 230.703C185.974 231.707 187.961 235.931 187.969 249.435C188.443 247.914 189.583 246.267 192.265 247.807C192.471 247.926 192.648 248.087 192.787 248.28C192.926 248.472 193.022 248.692 193.07 248.924C193.117 249.156 193.115 249.396 193.064 249.628C193.012 249.86 192.912 250.078 192.771 250.268V250.268Z" fill="#C36F0B"/>
<path d="M196.403 233.722C192.383 238.78 187.623 250.488 187.623 250.488C187.623 250.488 189.351 232.364 182.346 232.562C179.014 232.653 172.312 237.327 165.295 236.566C159.468 235.935 152.188 228.018 149.191 233.193C147.531 237.16 147.649 243.385 147.899 249.789C146.11 241.594 142.41 236.14 140.377 232.885C136.107 230.668 132.756 225.922 133.721 221.097C135.362 212.932 141.65 213.389 141.65 213.389C152.253 214.488 146.064 208.301 158.917 202.456C171.769 196.611 186.388 202.144 187.646 209.187C188.512 214.016 191.479 211.598 196.125 213.75C202.652 216.8 201.125 227.763 196.403 233.722Z" fill="#FFB000"/>
<path d="M158.111 239.202C176.104 241.484 177.889 231.707 185.636 232.889" stroke="#FFB000" stroke-width="3" stroke-miterlimit="10"/>
<defs>
<filter id="filter0_d_0_1" x="0" y="0" width="663" height="860" filterUnits="userSpaceOnUse" color-interpolation-filters="sRGB">
<feFlood flood-opacity="0" result="BackgroundImageFix"/>
<feColorMatrix in="SourceAlpha" type="matrix" values="0 0 0 0 0 0 0 0 0 0 0 0 0 0 0 0 0 0 127 0" result="hardAlpha"/>
<feOffset dy="8"/>
<feGaussianBlur stdDeviation="8"/>
<feColorMatrix type="matrix" values="0 0 0 0 0 0 0 0 0 0 0 0 0 0 0 0 0 0 0.15 0"/>
<feBlend mode="normal" in2="BackgroundImageFix" result="effect1_dropShadow_0_1"/>
<feBlend mode="normal" in="SourceGraphic" in2="effect1_dropShadow_0_1" result="shape"/>
</filter>
<linearGradient id="paint0_linear_0_1" x1="36.1893" y1="61.5483" x2="756.504" y2="227.778" gradientUnits="userSpaceOnUse">
<stop stop-color="#9013FE"/>
<stop offset="1" stop-color="#6A10F3"/>
</linearGradient>
<clipPath id="clip0_0_1">
<rect width="330" height="455" fill="white" transform="translate(279 216)"/>
</clipPath>
<clipPath id="clip1_0_1">
<rect width="223.697" height="48.4076" fill="white" transform="translate(219.303 95.2362)"/>
</clipPath>
</defs>
</svg>
