<svg width="130" height="28" viewBox="0 0 130 28" fill="none" xmlns="http://www.w3.org/2000/svg">
<g clip-path="url(#clip0_2114_202843)">
<path d="M0.282609 8.04345C0.282609 11.1956 2.06522 13.1521 5.5 13.8695L8.45652 14.4782C9.73913 14.7391 10.2391 15.2826 10.2391 16.3478C10.2391 17.5652 9.04348 18.3261 7.13043 18.3261C5.21739 18.3261 4.21739 17.5434 4.21739 16.1304H0C0 19.7608 2.78261 22.0869 7.08696 22.0869C11.3913 22.0869 14.4348 19.6521 14.4348 15.9348C14.4348 12.8913 12.7826 11.2391 9.34783 10.5434L6.45652 9.93475C5.1087 9.65214 4.5 9.06519 4.5 7.89127C4.5 6.60866 5.58696 5.82606 7.32609 5.82606C8.91304 5.82606 9.93478 6.65214 9.93478 8.02171H14.1304C14.1304 4.36953 11.5217 2.06519 7.36956 2.06519C3.21739 2.06519 0.282609 4.54345 0.282609 8.04345Z" fill="#212529"/>
<path d="M16.761 28.0001H20.7827V20.4349C21.5436 21.4349 23.2175 22.1088 25.0001 22.1088C28.8914 22.1088 31.1305 19.1305 31.1305 15.0218C31.1305 10.9131 28.6088 8.28271 24.9784 8.28271C23.1306 8.28271 21.4784 9.08706 20.761 10.2827L20.5436 8.69576H16.761V28.0001V28.0001ZM20.8045 15.2175C20.8045 13.261 22.1088 11.9566 23.9784 11.9566C25.8479 11.9566 27.0871 13.2827 27.0871 15.2175C27.0871 17.1523 25.8914 18.4784 23.9784 18.4784C22.0653 18.4784 20.8045 17.174 20.8045 15.2175V15.2175Z" fill="#212529"/>
<path d="M37.3913 22.0871C39.3479 22.0871 41.0653 21.2175 41.4783 20.0218L41.7392 21.7392H45.2827V14.1305C45.2827 10.3914 43.1522 8.28271 39.3696 8.28271C35.587 8.28271 33.2174 10.2175 33.2174 13.1523H36.5653C36.5653 11.9784 37.4783 11.3262 39.174 11.3262C40.6087 11.3262 41.3913 12.0001 41.3913 13.2827V13.5001L37.7392 13.7827C34.6087 14.0218 32.9131 15.5001 32.9131 17.9131C32.9131 20.4784 34.6305 22.0871 37.3913 22.0871ZM38.8044 19.1088C37.587 19.1088 37 18.674 37 17.7175C37 16.8914 37.6305 16.5001 39.3696 16.3262L41.4131 16.1523V16.8479C41.4131 18.3262 40.3479 19.0871 38.8044 19.0871V19.1088Z" fill="#212529"/>
<path d="M52.1956 21.7392V14.5871C52.1956 12.9784 53.2173 11.9349 54.8043 11.9349C56.1956 11.9349 57.1086 13.0001 57.1086 14.6523V21.7392H61.1304V13.674C61.1304 10.261 59.326 8.28271 56.2173 8.28271C54.5217 8.28271 53.0434 8.93489 52.2173 10.0653L51.9564 8.7175H48.1738V21.761H52.1956V21.7392Z" fill="#212529"/>
<path d="M111.456 22.0871C115.022 22.0871 117.609 20.2392 118.087 17.3479H114.413C114.13 18.2827 113.065 18.8262 111.543 18.8262C109.761 18.8262 108.804 18.0218 108.565 16.3044L118.043 16.261V15.2392C118.043 10.9784 115.478 8.30444 111.391 8.30444C107.304 8.30444 104.717 11.1523 104.717 15.2175C104.717 19.2827 107.543 22.1088 111.478 22.1088L111.456 22.0871ZM111.413 11.5436C113.022 11.5436 114.043 12.4349 114.043 13.8044H108.609C108.913 12.2392 109.804 11.5436 111.391 11.5436H111.413Z" fill="#212529"/>
<path d="M129.391 8.69564C128.848 8.56521 128.326 8.52173 127.848 8.52173C126.109 8.52173 124.957 9.39129 124.413 10.6522L124.196 8.71738H120.413V21.7391H124.435V16.0869C124.435 13.5 125.826 12.4782 128.109 12.4782H129.391V8.69564Z" fill="#212529"/>
<path d="M75.174 18.9783C75.4349 18.9783 75.674 18.9348 75.9132 18.8479C76.1523 18.7609 76.3479 18.6305 76.5436 18.4348L81.0871 13.8913C81.3914 13.6087 81.5219 13.2609 81.5219 12.8696C81.5219 12.4783 81.3697 12.1305 81.0871 11.8479C80.8045 11.5653 80.4566 11.4131 80.0653 11.4131C79.674 11.4131 79.3262 11.5653 79.0436 11.8479L75.174 15.7174L74.2393 14.7827C73.9566 14.4783 73.6088 14.3479 73.2175 14.3479C72.8262 14.3479 72.4784 14.5 72.1958 14.7827C71.8914 15.0653 71.761 15.4131 71.761 15.8044C71.761 16.1957 71.9132 16.5435 72.1958 16.8261L73.8045 18.4348C74.0001 18.6305 74.2175 18.7609 74.4349 18.8479C74.674 18.9348 74.9132 18.9783 75.174 18.9783V18.9783Z" fill="url(#paint0_linear_2114_202843)"/>
<path d="M66.2175 8.3913C68.1305 6.47826 70.4349 5.52174 73.1305 5.52174H98.5653V0H102.478V15.3261C102.478 18.0435 101.522 20.3478 99.6088 22.2391C97.6957 24.1522 95.3914 25.1087 92.6957 25.1087H73.1305C70.4349 25.1087 68.1088 24.1522 66.2175 22.2391C64.3262 20.3261 63.3479 18.0217 63.3479 15.3261C63.3479 12.6304 64.3044 10.3043 66.2175 8.41304V8.3913ZM68.9783 19.4565C70.1088 20.587 71.5001 21.1739 73.1305 21.1739H92.6957C94.3262 21.1739 95.7175 20.6087 96.8479 19.4565C97.9783 18.3043 98.5653 16.9348 98.5653 15.3043V9.43478H73.1305C71.5001 9.43478 70.1088 10 68.9783 11.1522C67.8262 12.3043 67.2609 13.6739 67.2609 15.3043C67.2609 16.9348 67.8262 18.3261 68.9783 19.4565Z" fill="url(#paint1_linear_2114_202843)"/>
</g>
<defs>
<linearGradient id="paint0_linear_2114_202843" x1="72.0733" y1="11.9023" x2="82.2549" y2="15.8804" gradientUnits="userSpaceOnUse">
<stop stop-color="#9013FE"/>
<stop offset="1" stop-color="#6A10F3"/>
</linearGradient>
<linearGradient id="paint1_linear_2114_202843" x1="64.5999" y1="1.62382" x2="103.078" y2="19.7829" gradientUnits="userSpaceOnUse">
<stop stop-color="#9013FE"/>
<stop offset="1" stop-color="#6A10F3"/>
</linearGradient>
<clipPath id="clip0_2114_202843">
<rect width="129.391" height="28" fill="white"/>
</clipPath>
</defs>
</svg>
