<svg width="31" height="31" viewBox="0 0 31 31" fill="none" xmlns="http://www.w3.org/2000/svg">
<rect x="0.5" y="0.5" width="30" height="30" rx="2.7" fill="white" fill-opacity="0.01"/>
<path d="M16.7185 21.5C15.8426 21.5 15.0057 21.3443 14.2077 21.0328C13.4092 20.7214 12.6921 20.288 12.0563 19.7328L12.6921 19.1641C13.243 19.638 13.8542 20.0104 14.5256 20.2812C15.1964 20.5521 15.9274 20.6875 16.7185 20.6875C18.3715 20.6875 19.7736 20.1355 20.9247 19.0316C22.0765 17.9282 22.6523 16.5844 22.6523 15C22.6523 13.4292 22.0731 12.0885 20.9146 10.9781C19.7561 9.86771 18.3574 9.3125 16.7185 9.3125C15.0797 9.3125 13.681 9.86771 12.5225 10.9781C11.364 12.0885 10.7848 13.4292 10.7848 15V16.1172L12.6073 14.3703L13.2219 14.9391L10.3609 17.6813L7.5 14.9391L8.11457 14.3703L9.93709 16.1375V15C9.93709 14.0927 10.1137 13.2464 10.4669 12.4609C10.8201 11.6755 11.3041 10.9884 11.919 10.3996C12.5333 9.81029 13.2501 9.34635 14.0695 9.00781C14.889 8.66927 15.772 8.5 16.7185 8.5C17.6651 8.5 18.5481 8.66927 19.3675 9.00781C20.187 9.34635 20.9041 9.81029 21.519 10.3996C22.1333 10.9884 22.617 11.6755 22.9702 12.4609C23.3234 13.2464 23.5 14.0927 23.5 15C23.5 16.801 22.8397 18.3348 21.519 19.6012C20.1977 20.8671 18.5976 21.5 16.7185 21.5Z" fill="#6C757D"/>
<rect x="0.5" y="0.5" width="30" height="30" rx="2.7" stroke="#6C757D"/>
</svg>
