<svg width="347" height="226" viewBox="0 0 347 226" fill="none" xmlns="http://www.w3.org/2000/svg">
<g clip-path="url(#clip0_2826_542165)">
<path d="M168.298 140.987V224.969" stroke="#FFB000" stroke-width="6" stroke-miterlimit="10"/>
<path d="M131.383 140.987V224.969" stroke="#FFB000" stroke-width="6" stroke-miterlimit="10"/>
<path d="M168.655 211.467H131.835" stroke="#FFB000" stroke-width="6" stroke-miterlimit="10"/>
<path d="M125.517 129.731H174.521C176.167 129.731 177.501 131.072 177.501 132.727V137.991C177.501 139.645 176.167 140.987 174.521 140.987H125.517C123.871 140.987 122.537 139.645 122.537 137.991V132.727C122.537 131.072 123.871 129.731 125.517 129.731Z" fill="#F8F9FA" stroke="#6610F2" stroke-width="3" stroke-miterlimit="10"/>
<path d="M132.283 48.6473C129.245 47.7907 125.045 38.3097 129.647 33.1751C134.25 28.0405 144.002 27.8854 152.281 29.1316C159.933 30.2841 169.985 34.7459 166.154 44.3694C160.707 58.0526 132.283 48.6473 132.283 48.6473Z" fill="#FFB819"/>
<path d="M136.862 42.1906C133.991 41.581 129.059 36.7801 133.394 33.1262C137.729 29.4723 144.405 29.117 151.516 30.338C158.627 31.5589 165.996 34.0856 162.614 41.0129C159.232 47.9402 136.862 42.1906 136.862 42.1906Z" fill="#F49C00"/>
<path d="M119.919 224.133C121.776 225.282 133.134 225.215 135.278 224.133C137.422 223.051 136.92 219.393 137.277 216.952C137.634 214.51 142.706 209.918 142.992 208.336C143.277 206.755 137.777 203.31 136.823 201.907C137.609 204.237 129.741 204.747 129.107 203.238C129.416 208.767 125.373 217.558 122.058 218.351C119.971 218.852 118.062 222.984 119.919 224.133Z" fill="#DBDAFF"/>
<path d="M127.414 197.191L129.111 203.238C129.741 204.747 137.609 204.237 136.826 201.907C136.044 199.577 136.34 195.528 136.34 195.528L127.414 197.191Z" fill="#C36F0B"/>
<path d="M142.99 208.344C142.703 209.924 137.632 214.519 137.273 216.961C136.914 219.403 137.417 223.064 135.274 224.141C133.132 225.217 121.772 225.289 119.915 224.141" stroke="#6610F2" stroke-width="3" stroke-miterlimit="10" stroke-linecap="round"/>
<path d="M128.67 218.344C128.67 218.344 124.902 216.652 121.151 217.983" stroke="#F8F9FA" stroke-width="6" stroke-miterlimit="10" stroke-linecap="round"/>
<path d="M171.675 224.133C169.818 225.282 159.716 225.215 157.572 224.133C155.428 223.051 154.136 219.393 153.779 216.951C153.422 214.509 149.964 209.016 149.679 207.434C149.394 205.853 154.893 202.408 155.848 201.005C155.062 203.335 162.75 204.747 163.384 203.238C163.075 208.767 166.222 217.557 169.536 218.351C171.625 218.852 173.532 222.984 171.675 224.133Z" fill="#DBDAFF"/>
<path d="M167.231 196.83L163.38 203.238C162.75 204.747 155.062 203.335 155.844 201.005C156.626 198.675 156.869 194.987 156.869 194.987L167.231 196.83Z" fill="#C36F0B"/>
<path d="M149.679 207.442C149.964 209.022 153.422 214.519 153.779 216.961C154.136 219.403 155.43 223.064 157.574 224.141C159.718 225.217 169.818 225.289 171.677 224.141" stroke="#6610F2" stroke-width="3" stroke-miterlimit="10" stroke-linecap="round"/>
<path d="M162.924 218.344C162.924 218.344 166.683 216.652 170.443 217.983" stroke="#F8F9FA" stroke-width="6" stroke-miterlimit="10" stroke-linecap="round"/>
<path d="M168.262 105.421C168.262 105.421 205.63 123.817 205.63 135.132C205.63 155.317 172.208 197.894 166.468 197.335C160.728 196.776 155.074 195.555 155.295 193.113C155.516 190.671 167.536 152.383 176.877 141.048C176.877 141.048 173.468 135.653 152.164 135.89C141.897 136.003 132.945 136.705 132.725 137.039C132.504 137.372 143.887 159.701 138.079 194.228C137.571 197.236 125.054 198.498 123.841 196.834C122.628 195.169 103.2 136.541 105.075 131.875C106.95 127.209 126.427 110.5 135.926 105.416C142.767 101.757 168.262 105.421 168.262 105.421Z" fill="#3F4D79"/>
<path d="M178.933 47.0871C183.672 49.7021 190.754 73.1531 190.754 73.1531C190.754 73.1531 207.818 52.1008 208.607 51.9024C209.397 51.704 213.981 57.854 213.981 57.854C213.981 57.854 205.072 97.834 191.176 98.7231C185.342 99.0965 180.41 95.6951 176.36 90.7246C174.566 96.7393 172.89 101.699 172.89 101.699C172.172 104.224 185.565 111.176 182.509 113.086C182.509 113.086 172.082 109.678 153.684 114.446C131.686 120.152 121.051 115.824 123.131 114.165C125.21 112.506 128.476 107.111 129.604 103.502L127.575 84.0823C127.575 84.0823 120.473 102.2 109.738 102.2C96.9321 102.2 85.2279 62.8497 85.2279 62.8497C89.78 62.7198 93.5516 59.4519 93.5516 59.4519C98.3639 62.8497 108.38 74.7528 108.38 74.7528C108.38 74.7528 114.622 55.7854 117.613 51.4714C120.604 47.1574 130.353 43.7578 136.862 42.1906L162.614 41.0129C164.342 40.681 174.901 44.3187 178.933 47.0871Z" fill="#FFB000"/>
<path d="M108.38 73.9595C111.636 77.7234 114.579 84.4198 114.579 84.4198" stroke="#F49C00" stroke-width="6" stroke-miterlimit="10"/>
<path d="M128.836 45.0492C141.339 43.987 153.892 51.8917 153.892 51.8917C153.892 51.8917 164.927 49.4065 167.134 42.0229" stroke="#F49C00" stroke-width="6" stroke-miterlimit="10"/>
<path d="M172.531 101.699C172.531 101.699 179.432 81.7736 180.395 73.3711" stroke="#F49C00" stroke-width="6" stroke-miterlimit="10" stroke-linecap="round"/>
<path d="M85.5886 48.494C85.7554 49.5671 86.9163 51.2317 85.768 51.2191C85.1759 51.2191 80.8947 50.5175 80.3707 52.101C80.1492 52.8535 80.1891 53.6594 80.4838 54.386C79.5454 55.7946 80.2631 56.9452 80.2631 56.9452C79.6961 57.8217 79.5454 58.9561 79.9401 59.4557C79.9401 59.4557 78.9479 61.7551 79.8953 62.289C82.8307 63.9482 87.512 64.2927 89.78 63.7029C91.3716 63.2899 93.2807 62.3016 93.7687 58.8966C93.9697 57.5025 92.5881 53.8468 91.533 52.3391C91.1024 51.7187 89.5252 49.2443 88.9923 48.5661C88.2326 47.5732 87.7151 46.415 87.4815 45.1846C87.4815 45.1846 85.122 45.4966 85.5886 48.494Z" fill="#C36F0B"/>
<path d="M81.7505 51.8901C81.6465 52.6115 86.0192 52.763 86.7746 52.929C87.8511 53.1634 87.7112 55.4737 86.3152 55.2483C84.4158 55.1611 82.5294 54.8874 80.6829 54.4313" stroke="#B65A18" stroke-width="4" stroke-miterlimit="10" stroke-linecap="round"/>
<path d="M80.5484 56.9686C85.1741 57.9064 86.4086 57.8198 86.4086 57.8198C87.0832 57.9533 87.9517 55.5564 86.3153 55.248" stroke="#B65A18" stroke-width="4" stroke-miterlimit="10" stroke-linecap="round"/>
<path d="M80.4335 59.3744C84.7865 60.3357 86.2937 60.2257 86.2937 60.2257C86.9379 60.3032 87.7435 58.0236 86.4283 57.8667" stroke="#B65A18" stroke-width="4" stroke-miterlimit="10" stroke-linecap="round"/>
<path d="M85.0754 60.188C85.0754 60.188 86.631 60.0419 86.6077 61.0158C86.5646 62.7471 85.7303 62.9329 81.7918 62.2061" stroke="#B65A18" stroke-width="4" stroke-miterlimit="10" stroke-linecap="round"/>
<path d="M214.835 43.1717C214.799 44.2538 213.857 46.032 214.986 45.8769C215.571 45.7976 219.707 44.591 220.414 46.0861C220.724 46.8009 220.782 47.6006 220.579 48.3531C221.673 49.6264 221.106 50.8492 221.106 50.8492C221.77 51.6445 222.055 52.7447 221.727 53.2857C221.727 53.2857 222.983 55.4301 222.115 56.0721C219.423 58.0668 214.848 58.9776 212.54 58.6728C210.925 58.46 208.921 57.7187 208.028 54.4219C207.669 53.0729 208.582 49.309 209.438 47.6858C209.788 47.0203 211.044 44.389 211.489 43.655C212.115 42.5828 212.483 41.3787 212.565 40.1382C212.565 40.1382 214.932 40.1598 214.835 43.1717Z" fill="#C36F0B"/>
<path d="M220.236 56.2273C216.441 57.4248 215.596 57.3418 215.343 55.6411C215.264 55.1001 215.722 54.853 216.136 54.7394C215.944 54.7771 215.751 54.8042 215.556 54.8205C214.979 54.963 214.001 52.9846 214.867 52.4381C214.509 52.2578 214.128 50.9646 214.13 49.8158C213.461 49.3505 213.412 47.9708 214.191 47.6949C214.925 47.437 219.215 46.7499 219.036 46.0537L220.236 56.2273Z" fill="#C36F0B"/>
<path d="M220.168 48.4273C218.47 49.0862 216.715 49.5861 214.925 49.9206C213.577 50.312 213.159 48.0522 214.191 47.6897C214.925 47.4318 218.357 46.3082 219.036 46.0503" stroke="#B65A18" stroke-width="3" stroke-miterlimit="10" stroke-linecap="round"/>
<path d="M220.606 50.9123C216.159 52.4002 215.144 52.467 215.144 52.467C214.496 52.6798 213.349 50.4254 214.925 49.9204" stroke="#B65A18" stroke-width="3" stroke-miterlimit="10" stroke-linecap="round"/>
<path d="M221.221 53.2605C217.047 54.7411 215.547 54.8151 215.547 54.8151C214.921 54.972 214.047 52.6076 215.583 52.4038" stroke="#B65A18" stroke-width="3" stroke-miterlimit="10" stroke-linecap="round"/>
<path d="M216.755 54.6367C216.755 54.6367 215.203 54.6836 215.343 55.6413C215.596 57.342 216.439 57.4231 220.234 56.2274" stroke="#B65A18" stroke-width="3" stroke-miterlimit="10" stroke-linecap="round"/>
<path d="M142.324 25.3262C142.324 25.3262 145.057 37.6153 136.862 42.1908C136.862 42.1908 144.398 43.4983 154.03 51.4716C154.03 51.4716 161.444 45.1972 162.614 41.0113C162.614 41.0113 155.078 38.398 155.851 25.3208L142.324 25.3262Z" fill="#C36F0B"/>
<path d="M142.324 25.3262H155.851C155.071 38.3998 162.614 41.0166 162.614 41.0166C162.614 41.0166 147.572 41.0166 143.318 27.5373L142.324 25.3262Z" fill="#B65A18"/>
<path d="M141.807 25.2053C141.807 25.2053 145.825 33.0776 155.424 33.0812C163.987 33.0812 165.293 7.81953 152.541 7.47145C140.39 7.1396 141.954 21.5911 141.954 21.5911C141.954 21.5911 139.767 20.3124 138.972 21.6434C138.177 22.9744 141.807 25.2053 141.807 25.2053Z" fill="#C36F0B"/>
<path d="M147.432 8.41455C147.432 8.41455 147.571 12.788 153.594 12.7213C158.824 12.6636 161.692 15.6394 161.972 17.7819" stroke="#3F4D79" stroke-width="3" stroke-miterlimit="10" stroke-linecap="round"/>
<path d="M130.916 17.0516C130.916 21.8165 136.638 25.9357 142.974 28.7311C143.349 28.897 143.955 28.9349 144.723 28.8736C143.566 27.8122 142.582 26.5743 141.807 25.2053C141.807 25.2053 138.199 22.9437 138.98 21.6433C139.76 20.343 141.962 21.5892 141.962 21.5892C141.962 21.5892 140.865 11.5167 147.574 8.3876C147.626 8.48499 149.368 11.5726 154.518 11.7367C159.417 11.89 160.753 13.7674 161.313 15.7297C161.331 15.7982 161.349 15.8649 161.365 15.9335C161.996 18.5435 162.147 21.2476 161.81 23.9121L161.839 23.9013C162.314 23.3206 168.811 15.0443 167.116 10.6059C165.273 5.78154 153.495 -1.02308 144.066 0.661396C138.8 1.60463 130.918 14.5466 130.916 17.0516Z" fill="#3F4D79"/>
<path d="M173.622 85.3446H245.887C246.879 85.3433 247.845 85.0294 248.65 84.447C249.454 83.8646 250.057 83.0432 250.373 82.0983L265.689 36.2587C265.857 35.755 265.904 35.2182 265.825 34.6928C265.746 34.1674 265.544 33.6684 265.235 33.2371C264.926 32.8057 264.52 32.4544 264.049 32.2121C263.579 31.9699 263.058 31.8436 262.529 31.8438H190.264C189.273 31.8453 188.306 32.1594 187.502 32.7418C186.697 33.3241 186.094 34.1454 185.778 35.0901L170.471 80.9188C170.301 81.4225 170.253 81.9596 170.33 82.4858C170.408 83.0119 170.609 83.5119 170.917 83.9445C171.225 84.377 171.631 84.7296 172.101 84.9731C172.571 85.2166 173.093 85.344 173.622 85.3446Z" fill="#C7BFFF"/>
<path d="M175.271 87.132H247.538C248.53 87.1307 249.496 86.8167 250.3 86.2343C251.105 85.652 251.708 84.8305 252.024 83.8857L267.334 38.0551C267.503 37.5515 267.549 37.0149 267.47 36.4897C267.392 35.9644 267.19 35.4655 266.881 35.0342C266.572 34.6029 266.166 34.2516 265.696 34.0092C265.226 33.7668 264.705 33.6403 264.176 33.6401H191.913C190.921 33.6415 189.955 33.9554 189.15 34.5378C188.346 35.1202 187.743 35.9416 187.427 36.8864L172.118 82.717C171.95 83.2202 171.904 83.7563 171.982 84.2811C172.061 84.806 172.262 85.3045 172.57 85.7357C172.878 86.1669 173.284 86.5184 173.753 86.7611C174.223 87.0039 174.743 87.131 175.271 87.132Z" fill="#F8F9FA"/>
<path d="M173.622 85.1969H245.887C246.879 85.1959 247.845 84.882 248.65 84.2996C249.455 83.7172 250.057 82.8956 250.373 81.9506L265.689 36.1201C265.857 35.6163 265.904 35.0796 265.825 34.5542C265.746 34.0288 265.544 33.5298 265.235 33.0984C264.926 32.6671 264.52 32.3158 264.049 32.0735C263.579 31.8312 263.058 31.7049 262.529 31.7051H190.264C189.273 31.7067 188.306 32.0207 187.502 32.6031C186.697 33.1854 186.094 34.0067 185.778 34.9514L170.464 80.782C170.296 81.2856 170.249 81.8221 170.328 82.3474C170.407 82.8727 170.609 83.3716 170.917 83.8029C171.226 84.2342 171.632 84.5855 172.102 84.8279C172.573 85.0703 173.094 85.1968 173.622 85.1969V85.1969Z" stroke="#6610F2" stroke-width="3" stroke-miterlimit="10"/>
<path d="M204.879 70.832L199.381 84.5837H211.263C211.263 84.5837 208.953 73.8258 204.879 70.832Z" fill="#E2E2FF"/>
<path d="M196.977 101.831C220.372 101.831 210.534 76.6665 205.882 71.4399H223.887C228.538 76.6701 241.125 103.212 217.731 103.212H196.977V101.831Z" fill="#F8F9FA" stroke="#6610F2" stroke-width="3" stroke-miterlimit="10"/>
<path d="M216.837 59.4457C215.829 57.8403 216.643 55.5041 218.655 54.2276C220.667 52.9511 223.115 53.2177 224.123 54.8231C225.131 56.4285 224.317 58.7648 222.305 60.0413C220.293 61.3178 217.845 61.0511 216.837 59.4457Z" fill="#E2E2FF"/>
<path d="M215.688 58.4716C214.679 56.8662 215.493 54.53 217.505 53.2535C219.517 51.977 221.966 52.2436 222.974 53.849C223.982 55.4544 223.168 57.7907 221.156 59.0672C219.144 60.3437 216.696 60.077 215.688 58.4716Z" stroke="#6610F2" stroke-width="3" stroke-miterlimit="10"/>
<path d="M250.692 103.212H143.542C141.967 103.212 140.69 104.409 140.69 105.888C140.69 107.365 141.967 108.563 143.542 108.563H250.692V103.212Z" fill="#F8F9FA"/>
<path d="M250.692 103.212H143.542C141.967 103.212 140.69 104.409 140.69 105.888C140.69 107.365 141.967 108.563 143.542 108.563H250.692" stroke="#6610F2" stroke-width="3" stroke-miterlimit="10"/>
</g>
<defs>
<clipPath id="clip0_2826_542165">
<rect width="188.028" height="225.2" fill="white" transform="matrix(-1 0 0 1 267.514 0.399902)"/>
</clipPath>
</defs>
</svg>
