<svg width="31" height="31" viewBox="0 0 31 31" fill="none" xmlns="http://www.w3.org/2000/svg">
<rect x="0.5" y="0.5" width="30" height="30" rx="2.7" fill="white" fill-opacity="0.01"/>
<path d="M11.5 15.5C11.5 15.3674 11.5527 15.2402 11.6464 15.1464C11.7402 15.0527 11.8674 15 12 15H19C19.1326 15 19.2598 15.0527 19.3536 15.1464C19.4473 15.2402 19.5 15.3674 19.5 15.5C19.5 15.6326 19.4473 15.7598 19.3536 15.8536C19.2598 15.9473 19.1326 16 19 16H12C11.8674 16 11.7402 15.9473 11.6464 15.8536C11.5527 15.7598 11.5 15.6326 11.5 15.5Z" fill="#6C757D"/>
<rect x="0.5" y="0.5" width="30" height="30" rx="2.7" stroke="#6C757D"/>
</svg>
